700 0 1 0           
30 Autodesk Translation Framework 20 ASM 226.5.1.65535 NT 24 Wed Feb  3 10:55:28 2021 
1 9.999999999999999547e-07 1.000000000000000036e-10 
body $1 -1 $-1 $2 $-1 $3 #
rgb_color-st-attrib $-1 -1 $4 $-1 $0 0.8549019607843136859 0.3490196078431372362 0.3490196078431372362 #
lump $-1 -1 $-1 $-1 $5 $0 #
transform $-1 -1 1 0 0 0 1 0 0 0 1 0 0 0 1 no_rotate no_reflect no_shear #
ATTRIB_CUSTOM-attrib $-1 -1 $-1 $1 $0 @20 Timestamp_attrib_def 1 1612174097264761 #
shell $-1 -1 $-1 $-1 $-1 $6 $-1 $2 #
face $7 -1 $-1 $8 $9 $5 $-1 $10 forward single #
rgb_color-st-attrib $-1 -1 $11 $-1 $6 0.9647058823529411908 0.9647058823529411908 0.9529411764705881804 #
face $12 -1 $-1 $13 $14 $5 $-1 $15 forward single #
loop $-1 -1 $-1 $-1 $16 $6 #
sphere-surface $-1 -1 $-1 -2 1.5 10 -0.5 1 0 0 0 0 1 forward_v I I I I #
DXID-attrib $-1 -1 $17 $7 $6 @10 ASM ENTITY @1 0 #
rgb_color-st-attrib $-1 -1 $18 $-1 $8 0.9647058823529411908 0.9647058823529411908 0.9529411764705881804 #
face $19 -1 $-1 $20 $21 $5 $-1 $22 forward single #
loop $-1 -1 $-1 $-1 $23 $8 #
sphere-surface $-1 -1 $-1 2 1.5 10 -0.5 1 0 0 0 0 1 forward_v I I I I #
coedge $-1 -1 $-1 $16 $16 $24 $25 reversed $9 $-1 #
ATTRIB_CUSTOM-attrib $-1 -1 $-1 $11 $6 @27 NEUTRON_Material_attrib_def 1 @36 73badd1f-fc83-4b03-98f6-70f6a1dc0ec2 #
DXID-attrib $-1 -1 $26 $12 $8 @10 ASM ENTITY @1 1 #
rgb_color-st-attrib $-1 -1 $27 $-1 $13 0.9647058823529411908 0.9647058823529411908 0.9529411764705881804 #
face $28 -1 $-1 $29 $30 $5 $-1 $31 forward single #
loop $-1 -1 $-1 $-1 $32 $13 #
sphere-surface $-1 -1 $-1 0 1.5 10 -0.5 1 0 0 0 0 1 forward_v I I I I #
coedge $-1 -1 $-1 $23 $23 $33 $34 reversed $14 $-1 #
coedge $-1 -1 $-1 $24 $24 $16 $25 forward $35 $-1 #
edge $-1 -1 $-1 $36 -3.141592653589793116 $36 3.141592653589793116 $24 $37 forward @7 unknown #
ATTRIB_CUSTOM-attrib $-1 -1 $-1 $18 $8 @27 NEUTRON_Material_attrib_def 1 @36 e3e0e21a-b46a-48f0-8542-270e2258a38e #
DXID-attrib $-1 -1 $38 $19 $13 @10 ASM ENTITY @1 2 #
rgb_color-st-attrib $-1 -1 $39 $-1 $20 0.9647058823529411908 0.9647058823529411908 0.9529411764705881804 #
face $40 -1 $-1 $41 $42 $5 $-1 $43 forward single #
loop $-1 -1 $-1 $-1 $44 $20 #
sphere-surface $-1 -1 $-1 -2 -1.5 10 -0.5 1 0 0 0 0 1 forward_v I I I I #
coedge $-1 -1 $-1 $32 $32 $45 $46 reversed $21 $-1 #
coedge $-1 -1 $-1 $33 $33 $23 $34 forward $47 $-1 #
edge $-1 -1 $-1 $48 -3.141592653589793116 $48 3.141592653589793116 $33 $49 forward @7 unknown #
loop $-1 -1 $-1 $50 $24 $51 #
vertex $-1 -1 $-1 $25 $52 #
ellipse-curve $-1 -1 $-1 -2 1.5 10 -0 -0 -1 -0.499999999999999889 0 0 1 I I #
ATTRIB_CUSTOM-attrib $-1 -1 $-1 $27 $13 @27 NEUTRON_Material_attrib_def 1 @36 f773995d-ebf5-4864-8b71-307111a76308 #
DXID-attrib $-1 -1 $53 $28 $20 @10 ASM ENTITY @1 3 #
rgb_color-st-attrib $-1 -1 $54 $-1 $29 0.9647058823529411908 0.9647058823529411908 0.9529411764705881804 #
face $55 -1 $-1 $56 $57 $5 $-1 $58 forward single #
loop $-1 -1 $-1 $-1 $59 $29 #
sphere-surface $-1 -1 $-1 0 -1.5 10 -0.5 1 0 0 0 0 1 forward_v I I I I #
coedge $-1 -1 $-1 $44 $44 $60 $61 reversed $30 $-1 #
coedge $-1 -1 $-1 $45 $45 $32 $46 forward $62 $-1 #
edge $-1 -1 $-1 $63 -3.141592653589793116 $63 3.141592653589793116 $45 $64 forward @7 unknown #
loop $-1 -1 $-1 $35 $33 $51 #
vertex $-1 -1 $-1 $34 $65 #
ellipse-curve $-1 -1 $-1 2 1.5 10 -0 -0 -1 -0.500000000000000222 0 0 1 I I #
loop $-1 -1 $-1 $62 $66 $51 #
face $67 -1 $-1 $68 $47 $5 $-1 $69 forward single #
point $-1 -1 $-1 -1.500000000000000222 1.5 10 #
ATTRIB_CUSTOM-attrib $-1 -1 $-1 $39 $20 @27 NEUTRON_Material_attrib_def 1 @36 c36dbe73-67cd-47c0-87b6-6864792aa665 #
DXID-attrib $-1 -1 $70 $40 $29 @10 ASM ENTITY @1 4 #
rgb_color-st-attrib $-1 -1 $71 $-1 $41 0.9647058823529411908 0.9647058823529411908 0.9529411764705881804 #
face $72 -1 $-1 $73 $74 $5 $-1 $75 forward single #
loop $-1 -1 $-1 $-1 $76 $41 #
sphere-surface $-1 -1 $-1 2 -1.5 10 -0.5 1 0 0 0 0 1 forward_v I I I I #
coedge $-1 -1 $-1 $59 $59 $66 $77 reversed $42 $-1 #
coedge $-1 -1 $-1 $60 $60 $44 $61 forward $78 $-1 #
edge $-1 -1 $-1 $79 -3.141592653589793116 $79 3.141592653589793116 $60 $80 forward @7 unknown #
loop $-1 -1 $-1 $78 $45 $51 #
vertex $-1 -1 $-1 $46 $81 #
ellipse-curve $-1 -1 $-1 0 1.5 10 -0 -0 -1 -0.499999999999999889 0 0 1 I I #
point $-1 -1 $-1 2.5 1.5 10 #
coedge $-1 -1 $-1 $66 $66 $59 $77 forward $50 $-1 #
DXID-attrib $-1 -1 $-1 $-1 $51 @10 ASM ENTITY @2 45 #
face $82 -1 $-1 $-1 $83 $5 $-1 $84 forward single #
plane-surface $-1 -1 $-1 0 0 10 0 0 1 10 0 0 forward_v I I I I #
ATTRIB_CUSTOM-attrib $-1 -1 $-1 $54 $29 @27 NEUTRON_Material_attrib_def 1 @36 ea75824e-1c1f-4a5e-aed2-65ff45bb243f #
DXID-attrib $-1 -1 $85 $55 $41 @10 ASM ENTITY @1 5 #
rgb_color-st-attrib $-1 -1 $86 $-1 $56 0.9647058823529411908 0.9647058823529411908 0.9529411764705881804 #
face $87 -1 $-1 $88 $89 $5 $-1 $90 forward single #
loop $-1 -1 $-1 $-1 $91 $56 #
sphere-surface $-1 -1 $-1 1.250000000000000222 1.25 0 -0.5 1 0 0 0 0 1 forward_v I I I I #
coedge $-1 -1 $-1 $76 $76 $92 $93 reversed $57 $-1 #
edge $-1 -1 $-1 $94 -3.141592653589793116 $94 3.141592653589793116 $66 $95 forward @7 unknown #
loop $-1 -1 $-1 $96 $60 $51 #
vertex $-1 -1 $-1 $61 $97 #
ellipse-curve $-1 -1 $-1 -2 -1.5 10 -0 -0 -1 -0.499999999999999889 0 0 1 I I #
point $-1 -1 $-1 0.499999999999999889 1.5 10 #
DXID-attrib $-1 -1 $-1 $-1 $68 @10 ASM ENTITY @2 46 #
loop $-1 -1 $-1 $98 $99 $68 #
plane-surface $-1 -1 $-1 -4.999999999999999112 -5 0 0 -1 0 10 0 0 forward_v I I I I #
ATTRIB_CUSTOM-attrib $-1 -1 $-1 $71 $41 @27 NEUTRON_Material_attrib_def 1 @36 386f0152-40ca-40d8-b4a6-31f1ab694228 #
DXID-attrib $-1 -1 $100 $72 $56 @10 ASM ENTITY @1 6 #
rgb_color-st-attrib $-1 -1 $101 $-1 $73 0.9647058823529411908 0.9647058823529411908 0.9529411764705881804 #
face $102 -1 $-1 $103 $104 $5 $-1 $105 forward single #
loop $-1 -1 $-1 $-1 $106 $73 #
sphere-surface $-1 -1 $-1 1.250000000000000222 -1.25 0 -0.5 1 0 0 0 0 1 forward_v I I I I #
coedge $-1 -1 $-1 $91 $91 $107 $108 reversed $74 $-1 #
coedge $-1 -1 $-1 $92 $92 $76 $93 forward $96 $-1 #
edge $-1 -1 $-1 $109 -3.141592653589793116 $109 3.141592653589793116 $92 $110 forward @7 unknown #
vertex $-1 -1 $-1 $77 $111 #
ellipse-curve $-1 -1 $-1 0 -1.5 10 -0 -0 -1 -0.499999999999999889 0 0 1 I I #
loop $-1 -1 $-1 $112 $92 $51 #
point $-1 -1 $-1 -1.500000000000000222 -1.5 10 #
loop $-1 -1 $-1 $-1 $113 $68 #
coedge $-1 -1 $-1 $99 $99 $114 $115 forward $83 $-1 #
ATTRIB_CUSTOM-attrib $-1 -1 $-1 $86 $56 @27 NEUTRON_Material_attrib_def 1 @36 6fc12a04-d861-47e5-aa67-a418da1a0e9e #
DXID-attrib $-1 -1 $116 $87 $73 @10 ASM ENTITY @1 7 #
rgb_color-st-attrib $-1 -1 $117 $-1 $88 0.9647058823529411908 0.9647058823529411908 0.9529411764705881804 #
face $118 -1 $-1 $119 $120 $5 $-1 $121 forward single #
loop $-1 -1 $-1 $-1 $122 $88 #
sphere-surface $-1 -1 $-1 -1.249999999999999778 -1.25 0 -0.5 1 0 0 0 0 1 forward_v I I I I #
coedge $-1 -1 $-1 $106 $106 $123 $124 reversed $89 $-1 #
coedge $-1 -1 $-1 $107 $107 $91 $108 forward $125 $-1 #
edge $-1 -1 $-1 $126 -3.141592653589793116 $126 3.141592653589793116 $107 $127 forward @7 unknown #
vertex $-1 -1 $-1 $93 $128 #
ellipse-curve $-1 -1 $-1 2 -1.5 10 -0 -0 -1 -0.500000000000000222 0 0 1 I I #
point $-1 -1 $-1 0.499999999999999889 -1.5 10 #
loop $-1 -1 $-1 $-1 $129 $51 #
coedge $-1 -1 $-1 $130 $131 $132 $133 reversed $98 $-1 #
coedge $-1 -1 $-1 $114 $114 $99 $115 reversed $134 $-1 #
edge $-1 -1 $-1 $135 -4.712388980384689674 $135 1.570796326794896558 $99 $136 forward @7 unknown #
ATTRIB_CUSTOM-attrib $-1 -1 $-1 $101 $73 @27 NEUTRON_Material_attrib_def 1 @36 54c7886f-8455-4933-976a-292c6fdb1396 #
DXID-attrib $-1 -1 $137 $102 $88 @10 ASM ENTITY @1 8 #
rgb_color-st-attrib $-1 -1 $138 $-1 $103 0.9647058823529411908 0.9647058823529411908 0.9529411764705881804 #
face $139 -1 $-1 $140 $141 $5 $-1 $142 forward single #
loop $-1 -1 $-1 $-1 $143 $103 #
sphere-surface $-1 -1 $-1 0 0 0 -0.5 1 0 0 0 0 1 forward_v I I I I #
coedge $-1 -1 $-1 $122 $122 $144 $145 reversed $104 $-1 #
coedge $-1 -1 $-1 $123 $123 $106 $124 forward $146 $-1 #
edge $-1 -1 $-1 $147 -3.141592653589793116 $147 3.141592653589793116 $123 $148 forward @7 unknown #
loop $-1 -1 $-1 $146 $107 $149 #
vertex $-1 -1 $-1 $108 $150 #
ellipse-curve $-1 -1 $-1 1.250000000000000222 1.25 0 0 0 1 0.500000000000000222 0 0 1 I I #
point $-1 -1 $-1 2.5 -1.5 10 #
coedge $-1 -1 $-1 $151 $152 $153 $154 reversed $112 $-1 #
coedge $-1 -1 $-1 $155 $113 $156 $157 reversed $98 $-1 #
coedge $-1 -1 $-1 $113 $155 $158 $159 reversed $98 $-1 #
coedge $-1 -1 $-1 $160 $161 $113 $133 forward $162 $-1 #
edge $-1 -1 $-1 $163 -0.9000000000000000222 $164 -0.1000000000000000056 $113 $165 forward @7 tangent #
loop $-1 -1 $-1 $-1 $114 $166 #
vertex $-1 -1 $-1 $115 $167 #
ellipse-curve $-1 -1 $-1 0 -5 5 0 1 0 0.5000000000000004441 0 0 1 I I #
ATTRIB_CUSTOM-attrib $-1 -1 $-1 $117 $88 @27 NEUTRON_Material_attrib_def 1 @36 16693990-25ac-477d-b9c6-f5a908dd8ed1 #
DXID-attrib $-1 -1 $168 $118 $103 @10 ASM ENTITY @1 9 #
rgb_color-st-attrib $-1 -1 $169 $-1 $119 0.9647058823529411908 0.9647058823529411908 0.9529411764705881804 #
face $170 -1 $-1 $171 $172 $5 $-1 $173 forward single #
loop $-1 -1 $-1 $-1 $174 $119 #
sphere-surface $-1 -1 $-1 -1.249999999999999778 1.25 0 -0.5 1 0 0 0 0 1 forward_v I I I I #
coedge $-1 -1 $-1 $143 $143 $175 $176 reversed $120 $-1 #
coedge $-1 -1 $-1 $144 $144 $122 $145 forward $177 $-1 #
edge $-1 -1 $-1 $178 -3.141592653589793116 $178 3.141592653589793116 $144 $179 forward @7 unknown #
loop $-1 -1 $-1 $180 $123 $149 #
vertex $-1 -1 $-1 $124 $181 #
ellipse-curve $-1 -1 $-1 1.250000000000000222 -1.25 0 0 0 1 0.500000000000000222 0 0 1 I I #
face $182 -1 $-1 $183 $177 $5 $-1 $184 reversed single #
point $-1 -1 $-1 0.750000000000000111 1.25 0 #
coedge $-1 -1 $-1 $185 $129 $186 $187 reversed $112 $-1 #
coedge $-1 -1 $-1 $129 $188 $189 $190 reversed $112 $-1 #
coedge $-1 -1 $-1 $191 $192 $129 $154 forward $193 $-1 #
edge $-1 -1 $-1 $194 -0.7853981633974495002 $195 0.7853981633974471688 $129 $196 forward @7 tangent #
coedge $-1 -1 $-1 $131 $130 $197 $198 reversed $98 $-1 #
coedge $-1 -1 $-1 $199 $200 $130 $157 forward $201 $-1 #
edge $-1 -1 $-1 $202 -0.09999999999999992228 $163 0.5999999999999998668 $130 $203 forward @7 tangent #
coedge $-1 -1 $-1 $204 $205 $131 $159 forward $206 $-1 #
edge $-1 -1 $-1 $164 -0.5999999999999998668 $207 0.09999999999999992228 $131 $208 forward @7 tangent #
coedge $-1 -1 $-1 $209 $132 $210 $211 forward $162 $-1 #
coedge $-1 -1 $-1 $132 $209 $212 $213 forward $162 $-1 #
loop $-1 -1 $-1 $-1 $161 $214 #
vertex $-1 -1 $-1 $215 $216 #
vertex $-1 -1 $-1 $211 $217 #
straight-curve $-1 -1 $-1 3.499999999999998668 -5 0 0 0 -10 F -1.465000999999999998 F 0.4650010000000000532 #
face $218 -1 $-1 $219 $134 $5 $-1 $220 forward single #
point $-1 -1 $-1 0 -5 4.5 #
ATTRIB_CUSTOM-attrib $-1 -1 $-1 $138 $103 @27 NEUTRON_Material_attrib_def 1 @36 65a43922-799a-43ef-8d4a-7e88ede3fd30 #
DXID-attrib $-1 -1 $221 $139 $119 @10 ASM ENTITY @2 10 #
rgb_color-st-attrib $-1 -1 $222 $-1 $140 0.9647058823529411908 0.9647058823529411908 0.9529411764705881804 #
face $223 -1 $-1 $224 $225 $5 $-1 $226 forward single #
loop $-1 -1 $-1 $-1 $227 $140 #
sphere-surface $-1 -1 $-1 -1.500000000000000222 5 5 -0.5 0 0 -1 0 1 0 forward_v I I I I #
coedge $-1 -1 $-1 $174 $174 $228 $229 reversed $141 $-1 #
coedge $-1 -1 $-1 $175 $175 $143 $176 forward $230 $-1 #
edge $-1 -1 $-1 $231 -3.141592653589793116 $231 3.141592653589793116 $175 $232 forward @7 unknown #
loop $-1 -1 $-1 $233 $144 $149 #
vertex $-1 -1 $-1 $145 $234 #
ellipse-curve $-1 -1 $-1 -1.249999999999999778 -1.25 0 0 0 1 0.500000000000000222 0 0 1 I I #
loop $-1 -1 $-1 $-1 $235 $149 #
point $-1 -1 $-1 0.750000000000000111 -1.25 0 #
DXID-attrib $-1 -1 $-1 $-1 $149 @10 ASM ENTITY @2 42 #
face $236 -1 $-1 $237 $238 $5 $-1 $239 forward single #
plane-surface $-1 -1 $-1 0 0 0 0 0 1 10 0 0 forward_v I I I I #
coedge $-1 -1 $-1 $240 $151 $241 $242 reversed $112 $-1 #
coedge $-1 -1 $-1 $243 $244 $151 $187 forward $245 $-1 #
edge $-1 -1 $-1 $246 -0.5999999999999999778 $194 0.0999999999999999778 $151 $247 forward @7 tangent #
coedge $-1 -1 $-1 $152 $248 $249 $250 reversed $112 $-1 #
coedge $-1 -1 $-1 $200 $199 $152 $190 forward $201 $-1 #
edge $-1 -1 $-1 $195 -0.5999999999999998668 $251 0.09999999999999992228 $152 $252 forward @7 tangent #
coedge $-1 -1 $-1 $212 $153 $199 $215 reversed $193 $-1 #
coedge $-1 -1 $-1 $153 $212 $243 $253 reversed $193 $-1 #
loop $-1 -1 $-1 $-1 $191 $254 #
vertex $-1 -1 $-1 $253 $255 #
vertex $-1 -1 $-1 $215 $256 #
ellipse-curve $-1 -1 $-1 3.499999999999999112 -3.5 10 -0 -0 -1 0.3535533905932732868 -0.3535533905932741194 0 1 F -0.7853981633974495002 F 0.7853981633974471688 #
coedge $-1 -1 $-1 $257 $258 $155 $198 forward $259 $-1 #
edge $-1 -1 $-1 $207 0.1000000000000000056 $202 0.9000000000000000222 $155 $260 forward @7 tangent #
coedge $-1 -1 $-1 $189 $156 $191 $215 forward $201 $-1 #
coedge $-1 -1 $-1 $156 $189 $261 $262 forward $201 $-1 #
loop $-1 -1 $-1 $-1 $199 $263 #
vertex $-1 -1 $-1 $264 $265 #
straight-curve $-1 -1 $-1 -2.499999999999999556 -5 9 10 0 0 F -0.560000999999999971 F 1.060000999999999971 #
coedge $-1 -1 $-1 $266 $158 $267 $268 forward $206 $-1 #
coedge $-1 -1 $-1 $158 $266 $269 $270 forward $206 $-1 #
loop $-1 -1 $-1 $-1 $205 $271 #
vertex $-1 -1 $-1 $272 $273 #
straight-curve $-1 -1 $-1 -2.499999999999999556 -5 1 -10 0 0 F -1.060000999999999971 F 0.560000999999999971 #
coedge $-1 -1 $-1 $161 $160 $274 $275 forward $162 $-1 #
coedge $-1 -1 $-1 $269 $276 $160 $211 reversed $277 $-1 #
edge $-1 -1 $-1 $164 3.700743415417188139e-16 $278 1.570796326794896558 $160 $279 reversed @7 tangent #
coedge $-1 -1 $-1 $192 $191 $161 $213 reversed $193 $-1 #
edge $-1 -1 $-1 $280 -0 $163 1.570796326794896558 $161 $281 reversed @7 tangent #
face $282 -1 $-1 $283 $162 $5 $-1 $284 forward single #
edge $-1 -1 $-1 $163 0 $195 1.570796326794896558 $199 $285 forward @7 tangent #
point $-1 -1 $-1 3.499999999999998668 -5 9 #
point $-1 -1 $-1 3.499999999999999112 -5 1 #
rgb_color-st-attrib $-1 -1 $286 $-1 $166 0.9647058823529411908 0.9647058823529411908 0.9529411764705881804 #
face $287 -1 $-1 $288 $289 $5 $-1 $290 forward single #
sphere-surface $-1 -1 $-1 0 -5 5 -0.5 0 0 -1 0 1 0 forward_v I I I I #
ATTRIB_CUSTOM-attrib $-1 -1 $-1 $169 $119 @27 NEUTRON_Material_attrib_def 1 @36 311ad848-271c-40e4-af96-c539d7862187 #
DXID-attrib $-1 -1 $291 $170 $140 @10 ASM ENTITY @2 11 #
rgb_color-st-attrib $-1 -1 $292 $-1 $171 0.9647058823529411908 0.9647058823529411908 0.9529411764705881804 #
face $293 -1 $-1 $294 $295 $5 $-1 $296 forward single #
loop $-1 -1 $-1 $-1 $297 $171 #
sphere-surface $-1 -1 $-1 1.500000000000000222 5 5 -0.5 0 0 -1 0 1 0 forward_v I I I I #
coedge $-1 -1 $-1 $227 $227 $298 $299 reversed $172 $-1 #
coedge $-1 -1 $-1 $228 $228 $174 $229 forward $233 $-1 #
edge $-1 -1 $-1 $300 -3.141592653589793116 $300 3.141592653589793116 $228 $301 forward @7 unknown #
loop $-1 -1 $-1 $125 $175 $149 #
vertex $-1 -1 $-1 $176 $302 #
ellipse-curve $-1 -1 $-1 0 0 0 0 0 1 0.5 0 0 1 I I #
loop $-1 -1 $-1 $230 $228 $149 #
point $-1 -1 $-1 -1.75 -1.25 0 #
coedge $-1 -1 $-1 $303 $304 $305 $306 reversed $180 $-1 #
DXID-attrib $-1 -1 $-1 $-1 $183 @10 ASM ENTITY @2 43 #
face $307 -1 $-1 $51 $308 $5 $-1 $309 forward single #
loop $-1 -1 $-1 $310 $311 $183 #
plane-surface $-1 -1 $-1 4.999999999999999112 -5 0 1 0 0 0 10 0 forward_v I I I I #
coedge $-1 -1 $-1 $312 $185 $313 $314 reversed $112 $-1 #
coedge $-1 -1 $-1 $315 $316 $185 $242 forward $317 $-1 #
edge $-1 -1 $-1 $318 -0.785398163397448279 $246 0.785398163397448279 $185 $319 forward @7 tangent #
coedge $-1 -1 $-1 $320 $186 $192 $253 forward $245 $-1 #
coedge $-1 -1 $-1 $186 $320 $315 $321 forward $245 $-1 #
loop $-1 -1 $-1 $-1 $244 $283 #
vertex $-1 -1 $-1 $321 $322 #
straight-curve $-1 -1 $-1 3.999999999999999112 -2.5 10 -0 -10 -0 F -1.060000999999999971 F 0.560000999999999971 #
coedge $-1 -1 $-1 $188 $312 $323 $324 reversed $112 $-1 #
coedge $-1 -1 $-1 $325 $261 $188 $250 forward $326 $-1 #
edge $-1 -1 $-1 $251 -0.785398163397448279 $327 0.785398163397448279 $188 $328 forward @7 tangent #
vertex $-1 -1 $-1 $262 $329 #
straight-curve $-1 -1 $-1 -2.499999999999999556 -4 10 -10 0 0 F -1.060000999999999971 F 0.560000999999999971 #
edge $-1 -1 $-1 $194 0 $280 1.570796326794896558 $243 $330 forward @7 tangent #
face $331 -1 $-1 $214 $193 $5 $-1 $332 forward single #
point $-1 -1 $-1 3.999999999999999112 -3.5 10 #
point $-1 -1 $-1 3.499999999999999112 -4 10 #
coedge $-1 -1 $-1 $333 $197 $334 $264 forward $259 $-1 #
coedge $-1 -1 $-1 $197 $333 $335 $272 forward $259 $-1 #
loop $-1 -1 $-1 $-1 $257 $336 #
straight-curve $-1 -1 $-1 -3.499999999999998668 -5 0 0 0 10 F -0.4650010000000000532 F 1.465000999999999998 #
coedge $-1 -1 $-1 $249 $334 $200 $262 reversed $326 $-1 #
edge $-1 -1 $-1 $251 0 $202 1.570796326794896558 $200 $337 forward @7 tangent #
face $338 -1 $-1 $339 $201 $5 $-1 $340 forward single #
edge $-1 -1 $-1 $202 -0 $341 1.570796326794896558 $257 $342 reversed @7 tangent #
point $-1 -1 $-1 -3.499999999999998668 -5 9 #
coedge $-1 -1 $-1 $205 $204 $303 $343 forward $206 $-1 #
coedge $-1 -1 $-1 $335 $344 $204 $268 reversed $345 $-1 #
edge $-1 -1 $-1 $207 0 $346 1.570796326794896558 $204 $347 forward @7 tangent #
coedge $-1 -1 $-1 $305 $210 $205 $270 reversed $277 $-1 #
edge $-1 -1 $-1 $348 0 $164 1.570796326794896558 $205 $349 forward @7 tangent #
face $350 -1 $-1 $351 $206 $5 $-1 $352 forward single #
edge $-1 -1 $-1 $353 -0 $207 1.570796326794896558 $258 $354 reversed @7 tangent #
point $-1 -1 $-1 -3.499999999999998668 -5 1 #
coedge $-1 -1 $-1 $355 $356 $209 $275 reversed $357 $-1 #
edge $-1 -1 $-1 $278 0.1000000000000000056 $280 0.9000000000000000222 $274 $358 forward @7 tangent #
coedge $-1 -1 $-1 $210 $305 $359 $360 reversed $277 $-1 #
loop $-1 -1 $-1 $-1 $305 $361 #
vertex $-1 -1 $-1 $360 $362 #
ellipse-curve $-1 -1 $-1 3.499999999999998668 -3.5 1 0 0 -1 0 -1.500000000000000222 0 1 F -1.570796326794896558 F -0 #
vertex $-1 -1 $-1 $213 $363 #
ellipse-curve $-1 -1 $-1 3.499999999999998668 -3.5 9 0 0 1 1.500000000000000222 0 0 1 F -1.570796326794896558 F -0 #
DXID-attrib $-1 -1 $-1 $-1 $214 @10 ASM ENTITY @2 35 #
face $364 -1 $-1 $263 $245 $5 $-1 $365 forward single #
cone-surface $-1 -1 $-1 3.499999999999998668 -3.5 0 0 0 1 1.060660171779821637 -1.060660171779821637 0 1 I I 0 1 1.500000000000000444 forward I I I I #
ellipse-curve $-1 -1 $-1 3.499999999999999112 -4 9 -1 0 0 0 -0.999999999999999778 0 1 F 0 F 1.570796326794896558 #
DXID-attrib $-1 -1 $366 $218 $166 @10 ASM ENTITY @2 18 #
rgb_color-st-attrib $-1 -1 $367 $-1 $219 0.9647058823529411908 0.9647058823529411908 0.9529411764705881804 #
face $368 -1 $-1 $369 $370 $5 $-1 $371 forward single #
loop $-1 -1 $-1 $-1 $372 $219 #
sphere-surface $-1 -1 $-1 4.999999999999999112 1 5 -0.5 0 -1 0 1 0 0 forward_v I I I I #
ATTRIB_CUSTOM-attrib $-1 -1 $-1 $222 $140 @27 NEUTRON_Material_attrib_def 1 @36 216164e2-59dd-49c5-a638-7cb440124d40 #
DXID-attrib $-1 -1 $373 $223 $171 @10 ASM ENTITY @2 12 #
rgb_color-st-attrib $-1 -1 $374 $-1 $224 0.9647058823529411908 0.9647058823529411908 0.9529411764705881804 #
face $375 -1 $-1 $376 $377 $5 $-1 $378 forward single #
loop $-1 -1 $-1 $-1 $379 $224 #
sphere-surface $-1 -1 $-1 0 5 5 -0.5 0 0 -1 0 1 0 forward_v I I I I #
coedge $-1 -1 $-1 $297 $297 $380 $381 reversed $225 $-1 #
coedge $-1 -1 $-1 $298 $298 $227 $299 forward $308 $-1 #
edge $-1 -1 $-1 $382 -4.712388980384689674 $382 1.570796326794896558 $298 $383 forward @7 unknown #
vertex $-1 -1 $-1 $229 $384 #
ellipse-curve $-1 -1 $-1 -1.249999999999999778 1.25 0 0 0 1 0.5 0 0 1 I I #
point $-1 -1 $-1 -0.5 6.123233995736766036e-17 0 #
coedge $-1 -1 $-1 $385 $235 $266 $343 reversed $180 $-1 #
coedge $-1 -1 $-1 $235 $386 $387 $388 reversed $180 $-1 #
coedge $-1 -1 $-1 $276 $269 $235 $306 forward $277 $-1 #
edge $-1 -1 $-1 $348 -0.7853981633974470578 $389 0.7853981633974495002 $235 $390 forward @7 tangent #
DXID-attrib $-1 -1 $-1 $-1 $237 @10 ASM ENTITY @2 44 #
loop $-1 -1 $-1 $391 $298 $237 #
plane-surface $-1 -1 $-1 4.999999999999999112 5 0 0 1 0 -10 0 0 forward_v I I I I #
loop $-1 -1 $-1 $357 $392 $183 #
coedge $-1 -1 $-1 $311 $311 $372 $393 forward $238 $-1 #
coedge $-1 -1 $-1 $248 $240 $394 $395 reversed $112 $-1 #
coedge $-1 -1 $-1 $396 $397 $240 $314 forward $398 $-1 #
edge $-1 -1 $-1 $399 -0.5999999999999998668 $318 0.09999999999999992228 $240 $400 forward @7 tangent #
coedge $-1 -1 $-1 $401 $241 $244 $321 reversed $317 $-1 #
coedge $-1 -1 $-1 $241 $401 $396 $402 reversed $317 $-1 #
loop $-1 -1 $-1 $-1 $315 $403 #
vertex $-1 -1 $-1 $402 $404 #
ellipse-curve $-1 -1 $-1 3.499999999999998668 3.5 10 -0 -0 -1 0.3535533905932740639 0.3535533905932740639 0 1 F -0.785398163397448279 F 0.785398163397448279 #
coedge $-1 -1 $-1 $244 $243 $356 $405 forward $245 $-1 #
edge $-1 -1 $-1 $406 0 $246 1.570796326794896558 $244 $407 forward @7 tangent #
point $-1 -1 $-1 3.999999999999999112 3.5 10 #
coedge $-1 -1 $-1 $408 $409 $248 $324 forward $410 $-1 #
edge $-1 -1 $-1 $327 -0.5999999999999999778 $411 0.0999999999999999778 $248 $412 forward @7 tangent #
coedge $-1 -1 $-1 $334 $249 $409 $413 reversed $326 $-1 #
loop $-1 -1 $-1 $-1 $325 $414 #
vertex $-1 -1 $-1 $413 $415 #
ellipse-curve $-1 -1 $-1 -3.499999999999998668 -3.5 10 -0 -0 -1 -0.3535533905932740639 -0.3535533905932740639 0 1 F -0.785398163397448279 F 0.785398163397448279 #
point $-1 -1 $-1 -3.499999999999998668 -4 10 #
ellipse-curve $-1 -1 $-1 3.999999999999999112 -3.5 9 0 1 0 0 0 0.999999999999999778 1 F 0 F 1.570796326794896558 #
DXID-attrib $-1 -1 $-1 $-1 $254 @10 ASM ENTITY @2 34 #
torus-surface $-1 -1 $-1 3.499999999999999112 -3.5 9 0 0 1 0.5000000000000004441 0.999999999999999778 1 0 0 forward_v I I I I #
coedge $-1 -1 $-1 $258 $257 $416 $417 forward $259 $-1 #
coedge $-1 -1 $-1 $261 $325 $257 $264 reversed $326 $-1 #
coedge $-1 -1 $-1 $418 $267 $258 $272 reversed $345 $-1 #
face $419 -1 $-1 $403 $259 $5 $-1 $420 forward single #
ellipse-curve $-1 -1 $-1 -3.499999999999998668 -4 9 1 0 0 0 0 0.999999999999999778 1 F 0 F 1.570796326794896558 #
DXID-attrib $-1 -1 $-1 $-1 $263 @10 ASM ENTITY @2 37 #
face $421 -1 $-1 $271 $410 $5 $-1 $422 forward single #
cone-surface $-1 -1 $-1 -2.499999999999999556 -4 9 1 0 0 0 -0.7071067811865479058 0.7071067811865471286 1 I I 0 1 1 forward I I I I #
vertex $-1 -1 $-1 $413 $423 #
ellipse-curve $-1 -1 $-1 -3.499999999999998668 -3.5 9 0 0 1 0 -1.500000000000000222 0 1 F -1.570796326794896558 F -0 #
edge $-1 -1 $-1 $346 -0.09999999999999992228 $348 0.5999999999999998668 $303 $424 forward @7 tangent #
coedge $-1 -1 $-1 $267 $418 $385 $425 forward $345 $-1 #
loop $-1 -1 $-1 $-1 $335 $426 #
vertex $-1 -1 $-1 $425 $427 #
ellipse-curve $-1 -1 $-1 -3.499999999999998668 -4 1 1 0 0 0 -0.999999999999999778 0 1 F 0 F 1.570796326794896558 #
vertex $-1 -1 $-1 $306 $428 #
ellipse-curve $-1 -1 $-1 3.499999999999999112 -4 1 -1 -0 -0 0 0 -1 1 F 0 F 1.570796326794896558 #
DXID-attrib $-1 -1 $-1 $-1 $271 @10 ASM ENTITY @2 39 #
face $429 -1 $-1 $430 $431 $5 $-1 $432 forward single #
cone-surface $-1 -1 $-1 -2.499999999999999556 -4 1 1 0 0 0 -0.7071067811865473507 -0.7071067811865476838 1 I I 0 1 1 forward I I I I #
vertex $-1 -1 $-1 $272 $433 #
ellipse-curve $-1 -1 $-1 -3.499999999999998668 -3.5 1 -0 -0 -1 -1.500000000000000222 0 0 1 F -1.570796326794896558 F -0 #
coedge $-1 -1 $-1 $434 $274 $435 $436 reversed $357 $-1 #
coedge $-1 -1 $-1 $274 $434 $320 $405 reversed $357 $-1 #
loop $-1 -1 $-1 $-1 $355 $183 #
straight-curve $-1 -1 $-1 4.999999999999999112 -3.5 0 0 0 10 F -0.4650010000000000532 F 1.465000999999999998 #
coedge $-1 -1 $-1 $387 $435 $276 $360 forward $437 $-1 #
edge $-1 -1 $-1 $278 0 $389 1.570796326794896558 $359 $438 forward @7 tangent #
face $439 -1 $-1 $440 $277 $5 $-1 $441 forward single #
point $-1 -1 $-1 4.999999999999999112 -3.5 1 #
point $-1 -1 $-1 4.999999999999999112 -3.5 9 #
DXID-attrib $-1 -1 $-1 $-1 $283 @10 ASM ENTITY @2 36 #
cone-surface $-1 -1 $-1 3.999999999999999112 -2.5 9 0 1 0 0.7071067811865479058 0 0.7071067811865471286 1 I I 0 1 1 forward I I I I #
ATTRIB_CUSTOM-attrib $-1 -1 $-1 $286 $166 @27 NEUTRON_Material_attrib_def 1 @36 8cf1b962-6152-48da-93d3-67fc974e33e0 #
DXID-attrib $-1 -1 $442 $287 $219 @10 ASM ENTITY @2 19 #
rgb_color-st-attrib $-1 -1 $443 $-1 $288 0.9647058823529411908 0.9647058823529411908 0.9529411764705881804 #
face $444 -1 $-1 $426 $445 $5 $-1 $446 forward single #
loop $-1 -1 $-1 $-1 $447 $288 #
sphere-surface $-1 -1 $-1 4.999999999999999112 -1 5 -0.5 0 -1 0 1 0 0 forward_v I I I I #
coedge $-1 -1 $-1 $372 $372 $311 $393 reversed $289 $-1 #
ATTRIB_CUSTOM-attrib $-1 -1 $-1 $292 $171 @27 NEUTRON_Material_attrib_def 1 @36 ac320ff2-4739-421b-9b9b-1177b0de24ce #
DXID-attrib $-1 -1 $448 $293 $224 @10 ASM ENTITY @2 13 #
rgb_color-st-attrib $-1 -1 $449 $-1 $294 0.9647058823529411908 0.9647058823529411908 0.9529411764705881804 #
face $450 -1 $-1 $451 $452 $5 $-1 $453 forward single #
loop $-1 -1 $-1 $-1 $454 $294 #
sphere-surface $-1 -1 $-1 -4.999999999999999112 -0.9999999999999986677 4.000000000000001776 -0.5 0 -1 0 1 0 0 forward_v I I I I #
coedge $-1 -1 $-1 $379 $379 $455 $456 reversed $295 $-1 #
coedge $-1 -1 $-1 $380 $380 $297 $381 forward $457 $-1 #
edge $-1 -1 $-1 $458 -4.712388980384689674 $458 1.570796326794896558 $380 $459 forward @7 unknown #
vertex $-1 -1 $-1 $299 $460 #
ellipse-curve $-1 -1 $-1 -1.500000000000000222 5 5 0 -1 0 -0.499999999999999889 0 0 1 I I #
point $-1 -1 $-1 -1.75 1.25 0 #
coedge $-1 -1 $-1 $461 $303 $344 $425 reversed $180 $-1 #
coedge $-1 -1 $-1 $304 $462 $463 $464 reversed $180 $-1 #
coedge $-1 -1 $-1 $465 $359 $304 $388 forward $437 $-1 #
edge $-1 -1 $-1 $389 -0.0999999999999999778 $466 0.5999999999999999778 $304 $467 forward @7 tangent #
vertex $-1 -1 $-1 $306 $468 #
ellipse-curve $-1 -1 $-1 3.499999999999999112 -3.5 0 0 0 1 0.3535533905932736753 -0.353553390593274508 0 1 F -0.7853981633974470578 F 0.7853981633974495002 #
loop $-1 -1 $-1 $457 $455 $237 #
coedge $-1 -1 $-1 $392 $392 $447 $469 forward $310 $-1 #
edge $-1 -1 $-1 $470 -4.712388980384689674 $470 1.570796326794896558 $311 $471 forward @7 unknown #
coedge $-1 -1 $-1 $472 $473 $312 $395 forward $474 $-1 #
edge $-1 -1 $-1 $411 -0.7853981633974495002 $399 0.7853981633974471688 $312 $475 forward @7 tangent #
coedge $-1 -1 $-1 $476 $313 $316 $402 forward $398 $-1 #
coedge $-1 -1 $-1 $313 $476 $472 $477 forward $398 $-1 #
loop $-1 -1 $-1 $-1 $397 $478 #
vertex $-1 -1 $-1 $477 $479 #
straight-curve $-1 -1 $-1 2.499999999999999556 4 10 10 0 0 F -1.060000999999999971 F 0.560000999999999971 #
coedge $-1 -1 $-1 $316 $315 $480 $481 reversed $317 $-1 #
edge $-1 -1 $-1 $318 0 $482 1.570796326794896558 $396 $483 forward @7 tangent #
face $484 -1 $-1 $485 $317 $5 $-1 $486 forward single #
point $-1 -1 $-1 3.499999999999998668 4 10 #
edge $-1 -1 $-1 $280 -0.0999999999999999778 $406 0.5999999999999999778 $356 $487 forward @7 tangent #
vertex $-1 -1 $-1 $321 $488 #
ellipse-curve $-1 -1 $-1 3.999999999999999112 3.5 9 -0 -1 -0 0.999999999999999778 0 0 1 F 0 F 1.570796326794896558 #
coedge $-1 -1 $-1 $489 $323 $473 $490 forward $410 $-1 #
coedge $-1 -1 $-1 $323 $489 $325 $413 forward $410 $-1 #
loop $-1 -1 $-1 $-1 $409 $339 #
vertex $-1 -1 $-1 $490 $491 #
straight-curve $-1 -1 $-1 -3.999999999999999112 2.5 10 0 10 0 F -1.060000999999999971 F 0.560000999999999971 #
edge $-1 -1 $-1 $341 0 $327 1.570796326794896558 $409 $492 forward @7 tangent #
face $493 -1 $-1 $336 $326 $5 $-1 $494 forward single #
point $-1 -1 $-1 -3.999999999999999112 -3.5 10 #
coedge $-1 -1 $-1 $495 $496 $333 $417 reversed $497 $-1 #
edge $-1 -1 $-1 $341 -0.9000000000000000222 $353 -0.1000000000000000056 $416 $498 forward @7 tangent #
coedge $-1 -1 $-1 $344 $335 $499 $500 reversed $345 $-1 #
DXID-attrib $-1 -1 $-1 $-1 $336 @10 ASM ENTITY @2 30 #
cone-surface $-1 -1 $-1 -3.499999999999998668 -3.5 0 0 0 1 -1.060660171779821637 -1.060660171779821637 0 1 I I 0 1 1.500000000000000444 forward I I I I #
DXID-attrib $-1 -1 $-1 $-1 $339 @10 ASM ENTITY @2 38 #
cone-surface $-1 -1 $-1 -3.999999999999999112 2.5 9 0 -1 0 -0.7071067811865479058 0 0.7071067811865471286 1 I I 0 1 1 forward I I I I #
point $-1 -1 $-1 -4.999999999999999112 -3.5 9 #
straight-curve $-1 -1 $-1 -2.499999999999999556 -4 0 10 0 0 F -0.560000999999999971 F 1.060000999999999971 #
edge $-1 -1 $-1 $501 -0.785398163397448279 $346 0.785398163397448279 $385 $502 forward @7 tangent #
face $503 -1 $-1 $504 $345 $5 $-1 $505 forward single #
point $-1 -1 $-1 -3.499999999999998668 -4 0 #
point $-1 -1 $-1 3.499999999999999112 -4 0 #
DXID-attrib $-1 -1 $-1 $-1 $351 @10 ASM ENTITY @2 40 #
face $506 -1 $-1 $149 $507 $5 $-1 $508 forward single #
loop $-1 -1 $-1 $-1 $509 $351 #
cone-surface $-1 -1 $-1 2.499999999999999556 4 1 -1 0 0 0 0.7071067811865473507 -0.7071067811865476838 1 I I 0 1 1 forward I I I I #
point $-1 -1 $-1 -4.999999999999999112 -3.5 1 #
coedge $-1 -1 $-1 $356 $355 $510 $511 reversed $357 $-1 #
coedge $-1 -1 $-1 $359 $465 $355 $436 forward $437 $-1 #
edge $-1 -1 $-1 $512 -0.5999999999999999778 $278 0.0999999999999999778 $355 $513 forward @7 tangent #
loop $-1 -1 $-1 $-1 $465 $440 #
ellipse-curve $-1 -1 $-1 3.999999999999999112 -3.5 1 0 1 0 0.999999999999999778 0 0 1 F 0 F 1.570796326794896558 #
DXID-attrib $-1 -1 $-1 $-1 $361 @10 ASM ENTITY @2 27 #
face $514 -1 $-1 $414 $437 $5 $-1 $515 forward single #
torus-surface $-1 -1 $-1 3.499999999999999112 -3.5 1 0 0 1 0.5000000000000004441 1 1 0 0 forward_v I I I I #
ATTRIB_CUSTOM-attrib $-1 -1 $-1 $367 $219 @27 NEUTRON_Material_attrib_def 1 @36 c737ca8f-1ca3-47e2-912e-9c89485c945a #
DXID-attrib $-1 -1 $516 $368 $288 @10 ASM ENTITY @2 20 #
DXID-attrib $-1 -1 $-1 $-1 $369 @10 ASM ENTITY @2 21 #
loop $-1 -1 $-1 $-1 $517 $369 #
torus-surface $-1 -1 $-1 -3.499999999999999112 3.5 1 0 0 -1 0.499999999999999889 0.999999999999999778 -1 0 0 forward_v I I I I #
coedge $-1 -1 $-1 $447 $447 $392 $469 reversed $370 $-1 #
ATTRIB_CUSTOM-attrib $-1 -1 $-1 $374 $224 @27 NEUTRON_Material_attrib_def 1 @36 c90d540a-8411-43ba-8df1-ae239722a6ec #
DXID-attrib $-1 -1 $518 $375 $294 @10 ASM ENTITY @2 14 #
rgb_color-st-attrib $-1 -1 $519 $-1 $376 0.9647058823529411908 0.9647058823529411908 0.9529411764705881804 #
face $520 -1 $-1 $521 $522 $5 $-1 $523 forward single #
loop $-1 -1 $-1 $-1 $524 $376 #
sphere-surface $-1 -1 $-1 -4.999999999999999112 -0.9999999999999986677 5.999999999999998224 -0.5 0 -1 0 1 0 0 forward_v I I I I #
coedge $-1 -1 $-1 $454 $454 $525 $526 reversed $377 $-1 #
coedge $-1 -1 $-1 $455 $455 $379 $456 forward $391 $-1 #
edge $-1 -1 $-1 $527 -4.712388980384689674 $527 1.570796326794896558 $455 $528 forward @7 unknown #
loop $-1 -1 $-1 $529 $380 $237 #
vertex $-1 -1 $-1 $381 $530 #
ellipse-curve $-1 -1 $-1 1.500000000000000222 5 5 0 -1 0 -0.499999999999999889 0 0 1 I I #
point $-1 -1 $-1 -1.500000000000000222 5 4.5 #
coedge $-1 -1 $-1 $531 $385 $532 $533 reversed $180 $-1 #
coedge $-1 -1 $-1 $386 $531 $534 $535 reversed $180 $-1 #
coedge $-1 -1 $-1 $536 $537 $386 $464 forward $538 $-1 #
edge $-1 -1 $-1 $466 -0.785398163397448279 $539 0.785398163397448279 $386 $540 forward @7 tangent #
coedge $-1 -1 $-1 $435 $387 $537 $541 forward $437 $-1 #
vertex $-1 -1 $-1 $541 $542 #
straight-curve $-1 -1 $-1 3.999999999999999112 -2.5 0 0 10 0 F -0.560000999999999971 F 1.060000999999999971 #
point $-1 -1 $-1 3.999999999999999112 -3.5 0 #
edge $-1 -1 $-1 $543 -4.712388980384689674 $543 1.570796326794896558 $392 $544 forward @7 unknown #
vertex $-1 -1 $-1 $393 $545 #
ellipse-curve $-1 -1 $-1 4.999999999999999112 1 5 -1 -0 -0 0 0.5000000000000004441 0 1 I I #
coedge $-1 -1 $-1 $546 $394 $397 $477 reversed $474 $-1 #
coedge $-1 -1 $-1 $394 $546 $408 $490 reversed $474 $-1 #
loop $-1 -1 $-1 $-1 $472 $547 #
ellipse-curve $-1 -1 $-1 -3.499999999999999112 3.5 10 -0 -0 -1 -0.3535533905932732868 0.3535533905932741194 0 1 F -0.7853981633974495002 F 0.7853981633974471688 #
coedge $-1 -1 $-1 $397 $396 $548 $549 forward $398 $-1 #
edge $-1 -1 $-1 $550 0 $399 1.570796326794896558 $397 $551 forward @7 tangent #
face $552 -1 $-1 $254 $398 $5 $-1 $553 forward single #
point $-1 -1 $-1 -3.499999999999999112 4 10 #
coedge $-1 -1 $-1 $510 $554 $401 $481 forward $555 $-1 #
edge $-1 -1 $-1 $482 -0 $406 1.570796326794896558 $480 $556 reversed @7 tangent #
vertex $-1 -1 $-1 $481 $557 #
ellipse-curve $-1 -1 $-1 3.499999999999998668 4 9 -1 -0 -0 0 0 0.999999999999999778 1 F 0 F 1.570796326794896558 #
DXID-attrib $-1 -1 $-1 $-1 $403 @10 ASM ENTITY @2 31 #
face $558 -1 $-1 $478 $555 $5 $-1 $559 forward single #
torus-surface $-1 -1 $-1 3.499999999999998668 3.5 9 0 0 1 0.5000000000000004441 0.999999999999999778 1 0 0 forward_v I I I I #
straight-curve $-1 -1 $-1 4.999999999999999112 -2.5 9 0 10 0 F -0.560000999999999971 F 1.060000999999999971 #
point $-1 -1 $-1 4.999999999999999112 3.5 9 #
coedge $-1 -1 $-1 $409 $408 $495 $560 forward $410 $-1 #
edge $-1 -1 $-1 $411 0 $561 1.570796326794896558 $408 $562 forward @7 tangent #
point $-1 -1 $-1 -3.999999999999999112 3.5 10 #
ellipse-curve $-1 -1 $-1 -3.999999999999999112 -3.5 9 0 1 0 -0.999999999999999778 0 0 1 F 0 F 1.570796326794896558 #
DXID-attrib $-1 -1 $-1 $-1 $414 @10 ASM ENTITY @2 29 #
torus-surface $-1 -1 $-1 -3.499999999999998668 -3.5 9 0 0 1 0.5000000000000004441 0.999999999999999778 1 0 0 forward_v I I I I #
coedge $-1 -1 $-1 $563 $416 $489 $560 reversed $497 $-1 #
coedge $-1 -1 $-1 $416 $563 $564 $565 reversed $497 $-1 #
loop $-1 -1 $-1 $-1 $496 $430 #
straight-curve $-1 -1 $-1 -4.999999999999999112 -3.5 0 -0 -0 -10 F -1.465000999999999998 F 0.4650010000000000532 #
coedge $-1 -1 $-1 $564 $532 $418 $500 forward $566 $-1 #
edge $-1 -1 $-1 $501 0 $353 1.570796326794896558 $499 $567 forward @7 tangent #
vertex $-1 -1 $-1 $500 $568 #
ellipse-curve $-1 -1 $-1 -3.499999999999998668 -3.5 0 0 0 1 -0.3535533905932740639 -0.3535533905932740639 0 1 F -0.785398163397448279 F 0.785398163397448279 #
DXID-attrib $-1 -1 $-1 $-1 $426 @10 ASM ENTITY @2 22 #
face $569 -1 $-1 $570 $566 $5 $-1 $571 forward single #
torus-surface $-1 -1 $-1 -3.499999999999998668 -3.5 1 0 0 -1 0.5000000000000004441 0.999999999999999778 -1 0 0 forward_v I I I I #
DXID-attrib $-1 -1 $-1 $-1 $430 @10 ASM ENTITY @2 41 #
loop $-1 -1 $-1 $572 $525 $430 #
plane-surface $-1 -1 $-1 -4.999999999999999112 5 0 -1 0 0 0 -10 0 forward_v I I I I #
coedge $-1 -1 $-1 $573 $534 $574 $575 forward $431 $-1 #
coedge $-1 -1 $-1 $576 $480 $434 $511 forward $555 $-1 #
edge $-1 -1 $-1 $406 -0.9000000000000000222 $512 -0.1000000000000000056 $434 $577 forward @7 tangent #
vertex $-1 -1 $-1 $578 $579 #
straight-curve $-1 -1 $-1 4.999999999999999112 -2.5 1 -0 -10 -0 F -1.060000999999999971 F 0.560000999999999971 #
DXID-attrib $-1 -1 $-1 $-1 $440 @10 ASM ENTITY @2 28 #
cone-surface $-1 -1 $-1 3.999999999999999112 -2.5 1 0 1 0 0.7071067811865473507 0 -0.7071067811865476838 1 I I 0 1 1 forward I I I I #
ATTRIB_CUSTOM-attrib $-1 -1 $-1 $443 $288 @27 NEUTRON_Material_attrib_def 1 @36 52798f2c-01f5-4b61-a1e2-3223af2ccc1a #
coedge $-1 -1 $-1 $574 $580 $581 $582 reversed $445 $-1 #
ATTRIB_CUSTOM-attrib $-1 -1 $-1 $449 $294 @27 NEUTRON_Material_attrib_def 1 @36 516b5b03-c82c-424f-ac33-864c209014b3 #
DXID-attrib $-1 -1 $583 $450 $376 @10 ASM ENTITY @2 15 #
rgb_color-st-attrib $-1 -1 $584 $-1 $451 0.9647058823529411908 0.9647058823529411908 0.9529411764705881804 #
face $585 -1 $-1 $166 $586 $5 $-1 $587 forward single #
loop $-1 -1 $-1 $-1 $588 $451 #
sphere-surface $-1 -1 $-1 -4.999999999999999112 1.000000000000001332 3.999999999999999556 -0.5 0 -1 0 1 0 0 forward_v I I I I #
coedge $-1 -1 $-1 $524 $524 $589 $590 reversed $452 $-1 #
coedge $-1 -1 $-1 $525 $525 $454 $526 forward $507 $-1 #
edge $-1 -1 $-1 $591 -4.712388980384689674 $591 1.570796326794896558 $525 $592 forward @7 unknown #
vertex $-1 -1 $-1 $456 $593 #
ellipse-curve $-1 -1 $-1 0 5 5 0 -1 0 -0.5000000000000004441 0 0 1 I I #
loop $-1 -1 $-1 $-1 $594 $237 #
point $-1 -1 $-1 1.500000000000000222 5 4.5 #
coedge $-1 -1 $-1 $462 $461 $595 $596 reversed $180 $-1 #
coedge $-1 -1 $-1 $499 $597 $461 $533 forward $566 $-1 #
edge $-1 -1 $-1 $598 -0.0999999999999999778 $501 0.5999999999999999778 $461 $599 forward @7 tangent #
coedge $-1 -1 $-1 $509 $600 $462 $535 forward $431 $-1 #
edge $-1 -1 $-1 $539 -0.09999999999999992228 $601 0.5999999999999998668 $462 $602 forward @7 tangent #
coedge $-1 -1 $-1 $603 $463 $600 $604 reversed $538 $-1 #
coedge $-1 -1 $-1 $463 $603 $465 $541 reversed $538 $-1 #
loop $-1 -1 $-1 $-1 $603 $570 #
vertex $-1 -1 $-1 $464 $605 #
ellipse-curve $-1 -1 $-1 3.499999999999998668 3.5 0 0 0 1 0.3535533905932740639 0.3535533905932740639 0 1 F -0.785398163397448279 F 0.785398163397448279 #
edge $-1 -1 $-1 $466 0 $512 1.570796326794896558 $465 $606 forward @7 tangent #
point $-1 -1 $-1 3.999999999999999112 3.5 0 #
vertex $-1 -1 $-1 $469 $607 #
ellipse-curve $-1 -1 $-1 4.999999999999999112 -1 5 -1 -0 -0 0 0.5000000000000004441 0 1 I I #
point $-1 -1 $-1 4.999999999999999112 1 4.5 #
coedge $-1 -1 $-1 $473 $472 $608 $609 reversed $474 $-1 #
face $610 -1 $-1 $611 $474 $5 $-1 $612 forward single #
coedge $-1 -1 $-1 $594 $613 $476 $549 reversed $529 $-1 #
edge $-1 -1 $-1 $482 -0.09999999999999992228 $550 0.5999999999999998668 $548 $614 forward @7 tangent #
vertex $-1 -1 $-1 $477 $615 #
ellipse-curve $-1 -1 $-1 -3.499999999999999112 4 9 1 0 0 0 0.999999999999999778 0 1 F 0 F 1.570796326794896558 #
DXID-attrib $-1 -1 $-1 $-1 $478 @10 ASM ENTITY @2 33 #
cone-surface $-1 -1 $-1 2.499999999999999556 4 9 -1 0 0 0 0.7071067811865479058 0.7071067811865471286 1 I I 0 1 1 forward I I I I #
coedge $-1 -1 $-1 $480 $576 $594 $616 forward $555 $-1 #
loop $-1 -1 $-1 $-1 $480 $485 #
ellipse-curve $-1 -1 $-1 3.499999999999998668 3.5 9 0 0 1 0 1.500000000000000222 0 1 F -1.570796326794896558 F -0 #
point $-1 -1 $-1 3.499999999999998668 5 9 #
DXID-attrib $-1 -1 $-1 $-1 $485 @10 ASM ENTITY @2 32 #
cone-surface $-1 -1 $-1 3.499999999999998668 3.5 0 0 0 1 1.060660171779821637 1.060660171779821637 0 1 I I 0 1 1.500000000000000444 forward I I I I #
edge $-1 -1 $-1 $561 -0.0999999999999999778 $341 0.5999999999999999778 $495 $617 forward @7 tangent #
vertex $-1 -1 $-1 $609 $618 #
ellipse-curve $-1 -1 $-1 -3.999999999999999112 3.5 9 0 -1 0 0 0 0.999999999999999778 1 F 0 F 1.570796326794896558 #
coedge $-1 -1 $-1 $496 $495 $619 $620 reversed $497 $-1 #
coedge $-1 -1 $-1 $597 $499 $496 $565 forward $566 $-1 #
edge $-1 -1 $-1 $353 -0.5999999999999999778 $621 0.0999999999999999778 $496 $622 forward @7 tangent #
loop $-1 -1 $-1 $-1 $499 $504 #
ellipse-curve $-1 -1 $-1 -3.999999999999999112 -3.5 1 0 1 0 0 0 -1 1 F 0 F 1.570796326794896558 #
point $-1 -1 $-1 -3.999999999999999112 -3.5 0 #
DXID-attrib $-1 -1 $-1 $-1 $504 @10 ASM ENTITY @2 23 #
face $623 -1 $-1 $547 $538 $5 $-1 $624 forward single #
cone-surface $-1 -1 $-1 -3.999999999999999112 2.5 1 0 -1 0 -0.7071067811865473507 0 -0.7071067811865476838 1 I I 0 1 1 forward I I I I #
loop $-1 -1 $-1 $625 $589 $430 #
coedge $-1 -1 $-1 $600 $509 $626 $627 forward $431 $-1 #
coedge $-1 -1 $-1 $595 $517 $509 $575 reversed $445 $-1 #
edge $-1 -1 $-1 $601 0 $628 1.570796326794896558 $509 $629 forward @7 tangent #
coedge $-1 -1 $-1 $554 $510 $603 $578 forward $555 $-1 #
straight-curve $-1 -1 $-1 4.999999999999999112 3.5 0 0 0 -10 F -1.465000999999999998 F 0.4650010000000000532 #
edge $-1 -1 $-1 $512 -0 $630 1.570796326794896558 $576 $631 reversed @7 tangent #
point $-1 -1 $-1 4.999999999999999112 3.5 1 #
coedge $-1 -1 $-1 $517 $595 $597 $632 reversed $445 $-1 #
coedge $-1 -1 $-1 $619 $633 $517 $582 forward $634 $-1 #
edge $-1 -1 $-1 $628 3.700743415417188139e-16 $621 1.570796326794896558 $581 $635 reversed @7 tangent #
ATTRIB_CUSTOM-attrib $-1 -1 $-1 $519 $376 @27 NEUTRON_Material_attrib_def 1 @36 ee906676-ecbb-4cb1-ac4e-30e675852d2f #
DXID-attrib $-1 -1 $636 $520 $451 @10 ASM ENTITY @2 16 #
rgb_color-st-attrib $-1 -1 $637 $-1 $521 0.9647058823529411908 0.9647058823529411908 0.9529411764705881804 #
loop $-1 -1 $-1 $-1 $638 $521 #
sphere-surface $-1 -1 $-1 -4.999999999999999112 1.000000000000000666 6 -0.5 0 -1 0 1 0 0 forward_v I I I I #
coedge $-1 -1 $-1 $588 $588 $639 $640 reversed $522 $-1 #
coedge $-1 -1 $-1 $589 $589 $524 $590 forward $572 $-1 #
edge $-1 -1 $-1 $641 -4.712388980384689674 $641 1.570796326794896558 $589 $642 forward @7 unknown #
vertex $-1 -1 $-1 $526 $643 #
ellipse-curve $-1 -1 $-1 -4.999999999999999112 -0.9999999999999986677 4.000000000000001776 1 0 0 0 -0.499999999999999889 0 1 I I #
point $-1 -1 $-1 0 5 4.5 #
coedge $-1 -1 $-1 $626 $548 $554 $616 reversed $529 $-1 #
coedge $-1 -1 $-1 $580 $574 $531 $596 forward $445 $-1 #
edge $-1 -1 $-1 $601 -0.7853981633974470578 $598 0.7853981633974495002 $531 $644 forward @7 tangent #
coedge $-1 -1 $-1 $532 $564 $580 $632 forward $566 $-1 #
vertex $-1 -1 $-1 $596 $645 #
straight-curve $-1 -1 $-1 -3.999999999999999112 2.5 0 0 -10 0 F -0.560000999999999971 F 1.060000999999999971 #
coedge $-1 -1 $-1 $534 $573 $536 $604 forward $431 $-1 #
vertex $-1 -1 $-1 $575 $646 #
straight-curve $-1 -1 $-1 2.499999999999999556 4 0 -10 0 0 F -0.560000999999999971 F 1.060000999999999971 #
coedge $-1 -1 $-1 $537 $536 $576 $578 reversed $538 $-1 #
edge $-1 -1 $-1 $630 0 $539 1.570796326794896558 $600 $647 forward @7 tangent #
point $-1 -1 $-1 3.499999999999998668 4 0 #
ellipse-curve $-1 -1 $-1 3.999999999999999112 3.5 1 0 -1 0 0 0 -1 1 F 0 F 1.570796326794896558 #
point $-1 -1 $-1 4.999999999999999112 -1 4.5 #
coedge $-1 -1 $-1 $633 $619 $546 $609 forward $634 $-1 #
edge $-1 -1 $-1 $561 -0 $550 1.570796326794896558 $608 $648 reversed @7 tangent #
DXID-attrib $-1 -1 $-1 $-1 $547 @10 ASM ENTITY @2 25 #
face $649 -1 $-1 $361 $634 $5 $-1 $650 forward single #
torus-surface $-1 -1 $-1 -3.499999999999999112 3.5 9 0 0 1 0.5000000000000004441 0.999999999999999778 1 0 0 forward_v I I I I #
coedge $-1 -1 $-1 $548 $626 $633 $651 reversed $529 $-1 #
straight-curve $-1 -1 $-1 2.499999999999999556 5 9 -10 0 0 F -0.560000999999999971 F 1.060000999999999971 #
point $-1 -1 $-1 -3.499999999999998668 5 9 #
edge $-1 -1 $-1 $630 0.1000000000000000056 $482 0.9000000000000000222 $594 $652 forward @7 tangent #
straight-curve $-1 -1 $-1 -4.999999999999999112 2.5 9 0 -10 0 F -0.560000999999999971 F 1.060000999999999971 #
point $-1 -1 $-1 -4.999999999999999112 3.5 9 #
coedge $-1 -1 $-1 $608 $581 $563 $620 forward $634 $-1 #
edge $-1 -1 $-1 $621 0.1000000000000000056 $561 0.9000000000000000222 $563 $653 forward @7 tangent #
vertex $-1 -1 $-1 $582 $654 #
straight-curve $-1 -1 $-1 -4.999999999999999112 2.5 1 0 10 0 F -1.060000999999999971 F 0.560000999999999971 #
DXID-attrib $-1 -1 $-1 $-1 $570 @10 ASM ENTITY @2 24 #
torus-surface $-1 -1 $-1 3.499999999999998668 3.5 1 0 0 -1 0.5000000000000004441 0.999999999999999778 -1 0 0 forward_v I I I I #
loop $-1 -1 $-1 $655 $639 $430 #
coedge $-1 -1 $-1 $613 $594 $573 $627 reversed $529 $-1 #
edge $-1 -1 $-1 $628 -0.5999999999999998668 $630 0.09999999999999992228 $626 $656 forward @7 tangent #
vertex $-1 -1 $-1 $582 $657 #
ellipse-curve $-1 -1 $-1 -3.499999999999999112 4 1 1 0 0 0 0 -1 1 F 0 F 1.570796326794896558 #
vertex $-1 -1 $-1 $578 $658 #
ellipse-curve $-1 -1 $-1 3.499999999999998668 3.5 1 0 0 -1 1.500000000000000222 0 0 1 F -1.570796326794896558 F -0 #
edge $-1 -1 $-1 $621 0 $598 1.570796326794896558 $597 $659 forward @7 tangent #
coedge $-1 -1 $-1 $581 $608 $613 $651 forward $634 $-1 #
loop $-1 -1 $-1 $-1 $608 $611 #
ellipse-curve $-1 -1 $-1 -3.499999999999998668 3.5 1 0 0 -1 0 1.500000000000000222 0 1 F -1.570796326794896558 F -0 #
ATTRIB_CUSTOM-attrib $-1 -1 $-1 $584 $451 @27 NEUTRON_Material_attrib_def 1 @36 5972b4ce-a021-426b-a2b2-85d86f1b8620 #
DXID-attrib $-1 -1 $660 $585 $521 @10 ASM ENTITY @2 17 #
coedge $-1 -1 $-1 $638 $638 $661 $662 reversed $586 $-1 #
coedge $-1 -1 $-1 $639 $639 $588 $640 forward $625 $-1 #
edge $-1 -1 $-1 $663 -4.712388980384689674 $663 1.570796326794896558 $639 $664 forward @7 unknown #
vertex $-1 -1 $-1 $590 $665 #
ellipse-curve $-1 -1 $-1 -4.999999999999999112 -0.9999999999999986677 5.999999999999998224 1 0 0 0 -0.500000000000000222 0 1 I I #
point $-1 -1 $-1 -4.999999999999999112 -0.9999999999999986677 3.500000000000001776 #
ellipse-curve $-1 -1 $-1 -3.499999999999999112 3.5 0 0 0 1 -0.3535533905932736753 0.353553390593274508 0 1 F -0.7853981633974470578 F 0.7853981633974495002 #
point $-1 -1 $-1 -3.999999999999999112 3.5 0 #
point $-1 -1 $-1 -3.499999999999999112 4 0 #
ellipse-curve $-1 -1 $-1 3.499999999999998668 4 1 -1 0 0 0 0.999999999999999778 0 1 F 0 F 1.570796326794896558 #
ellipse-curve $-1 -1 $-1 -3.499999999999998668 3.5 9 0 0 1 -1.500000000000000222 0 0 1 F -1.570796326794896558 F -0 #
DXID-attrib $-1 -1 $-1 $-1 $611 @10 ASM ENTITY @2 26 #
cone-surface $-1 -1 $-1 -3.499999999999998668 3.5 0 0 0 1 -1.060660171779821637 1.060660171779821637 0 1 I I 0 1 1.500000000000000444 forward I I I I #
edge $-1 -1 $-1 $550 -0.9000000000000000222 $628 -0.1000000000000000056 $613 $666 forward @7 tangent #
straight-curve $-1 -1 $-1 3.499999999999998668 5 0 0 0 10 F -0.4650010000000000532 F 1.465000999999999998 #
straight-curve $-1 -1 $-1 -4.999999999999999112 3.5 0 0 0 10 F -0.4650010000000000532 F 1.465000999999999998 #
point $-1 -1 $-1 -4.999999999999999112 3.5 1 #
loop $-1 -1 $-1 $497 $661 $430 #
straight-curve $-1 -1 $-1 2.499999999999999556 5 1 10 0 0 F -1.060000999999999971 F 0.560000999999999971 #
point $-1 -1 $-1 -3.499999999999999112 5 1 #
point $-1 -1 $-1 3.499999999999998668 5 1 #
ellipse-curve $-1 -1 $-1 -3.999999999999999112 3.5 1 -0 -1 -0 -0.999999999999999778 0 0 1 F 0 F 1.570796326794896558 #
ATTRIB_CUSTOM-attrib $-1 -1 $-1 $637 $521 @27 NEUTRON_Material_attrib_def 1 @36 b4df69d4-2eb8-4179-9389-d5d651baa170 #
coedge $-1 -1 $-1 $661 $661 $638 $662 forward $655 $-1 #
edge $-1 -1 $-1 $667 -4.712388980384689674 $667 1.570796326794896558 $661 $668 forward @7 unknown #
vertex $-1 -1 $-1 $640 $669 #
ellipse-curve $-1 -1 $-1 -4.999999999999999112 1.000000000000001332 3.999999999999999556 1 0 0 0 -0.5 0 1 I I #
point $-1 -1 $-1 -4.999999999999999112 -0.9999999999999986677 5.499999999999998224 #
straight-curve $-1 -1 $-1 -3.499999999999998668 5 0 -0 -0 -10 F -1.465000999999999998 F 0.4650010000000000532 #
vertex $-1 -1 $-1 $662 $670 #
ellipse-curve $-1 -1 $-1 -4.999999999999999112 1.000000000000000666 6 1 0 0 0 -0.5000000000000004441 0 1 I I #
point $-1 -1 $-1 -4.999999999999999112 1.000000000000001332 3.5 #
point $-1 -1 $-1 -4.999999999999999112 1.000000000000000666 5.499999999999999112 #
End-of-ACIS-data 