22600 0 2 4           
30 Autodesk Translation Framework 20 ASM 226.5.1.65535 NT 24 Wed Feb  3 10:55:42 2021 
1 9.999999999999999547e-07 1.000000000000000036e-10 
asmheader $-1 -1 @13 226.5.1.65535 #
body $2 -1 $-1 $3 $-1 $4 #
rgb_color-st-attrib $-1 -1 $5 $-1 $1 0.8549019607843136859 0.3490196078431372362 0.3490196078431372362 1 #
lump $-1 -1 $-1 $-1 $6 $1 #
transform $-1 -1 1 0 0 0 1 0 0 0 1 0 0 0 1 no_rotate no_reflect no_shear #
ATTRIB_CUSTOM-attrib $-1 -1 $-1 $2 $1 @20 Timestamp_attrib_def 1 1612174097264761 #
shell $-1 -1 $-1 $-1 $-1 $7 $-1 $3 #
face $8 -1 $-1 $9 $10 $6 $-1 $11 forward single #
rgb_color-st-attrib $-1 -1 $12 $-1 $7 0.9647058823529411908 0.9647058823529411908 0.9529411764705881804 1 #
face $13 -1 $-1 $14 $15 $6 $-1 $16 forward single #
loop $-1 -1 $-1 $-1 $17 $7 #
sphere-surface $-1 -1 $-1 -2 1.5 10 -0.5 1 0 0 0 0 1 forward_v I I I I #
DXID-attrib $-1 -1 $18 $8 $7 @10 ASM ENTITY @1 0 #
rgb_color-st-attrib $-1 -1 $19 $-1 $9 0.9647058823529411908 0.9647058823529411908 0.9529411764705881804 1 #
face $20 -1 $-1 $21 $22 $6 $-1 $23 forward single #
loop $-1 -1 $-1 $-1 $24 $9 #
sphere-surface $-1 -1 $-1 2 1.5 10 -0.5 1 0 0 0 0 1 forward_v I I I I #
coedge $-1 -1 $-1 $17 $17 $25 $26 reversed $10 0 $-1 #
ATTRIB_CUSTOM-attrib $-1 -1 $-1 $12 $7 @27 NEUTRON_Material_attrib_def 1 @36 73badd1f-fc83-4b03-98f6-70f6a1dc0ec2 #
DXID-attrib $-1 -1 $27 $13 $9 @10 ASM ENTITY @1 1 #
rgb_color-st-attrib $-1 -1 $28 $-1 $14 0.9647058823529411908 0.9647058823529411908 0.9529411764705881804 1 #
face $29 -1 $-1 $30 $31 $6 $-1 $32 forward single #
loop $-1 -1 $-1 $-1 $33 $14 #
sphere-surface $-1 -1 $-1 0 1.5 10 -0.5 1 0 0 0 0 1 forward_v I I I I #
coedge $-1 -1 $-1 $24 $24 $34 $35 reversed $15 0 $-1 #
coedge $-1 -1 $-1 $25 $25 $17 $26 forward $36 0 $-1 #
edge $-1 -1 $-1 $37 -3.141592653589793116 $37 3.141592653589793116 $25 $38 forward @7 unknown #
ATTRIB_CUSTOM-attrib $-1 -1 $-1 $19 $9 @27 NEUTRON_Material_attrib_def 1 @36 e3e0e21a-b46a-48f0-8542-270e2258a38e #
DXID-attrib $-1 -1 $39 $20 $14 @10 ASM ENTITY @1 2 #
rgb_color-st-attrib $-1 -1 $40 $-1 $21 0.9647058823529411908 0.9647058823529411908 0.9529411764705881804 1 #
face $41 -1 $-1 $42 $43 $6 $-1 $44 forward single #
loop $-1 -1 $-1 $-1 $45 $21 #
sphere-surface $-1 -1 $-1 -2 -1.5 10 -0.5 1 0 0 0 0 1 forward_v I I I I #
coedge $-1 -1 $-1 $33 $33 $46 $47 reversed $22 0 $-1 #
coedge $-1 -1 $-1 $34 $34 $24 $35 forward $48 0 $-1 #
edge $-1 -1 $-1 $49 -3.141592653589793116 $49 3.141592653589793116 $34 $50 forward @7 unknown #
loop $-1 -1 $-1 $51 $25 $52 #
vertex $-1 -1 $-1 $26 0 $53 #
ellipse-curve $-1 -1 $-1 -2 1.5 10 -0 -0 -1 -0.499999999999999889 0 0 1 I I #
ATTRIB_CUSTOM-attrib $-1 -1 $-1 $28 $14 @27 NEUTRON_Material_attrib_def 1 @36 f773995d-ebf5-4864-8b71-307111a76308 #
DXID-attrib $-1 -1 $54 $29 $21 @10 ASM ENTITY @1 3 #
rgb_color-st-attrib $-1 -1 $55 $-1 $30 0.9647058823529411908 0.9647058823529411908 0.9529411764705881804 1 #
face $56 -1 $-1 $57 $58 $6 $-1 $59 forward single #
loop $-1 -1 $-1 $-1 $60 $30 #
sphere-surface $-1 -1 $-1 0 -1.5 10 -0.5 1 0 0 0 0 1 forward_v I I I I #
coedge $-1 -1 $-1 $45 $45 $61 $62 reversed $31 0 $-1 #
coedge $-1 -1 $-1 $46 $46 $33 $47 forward $63 0 $-1 #
edge $-1 -1 $-1 $64 -3.141592653589793116 $64 3.141592653589793116 $46 $65 forward @7 unknown #
loop $-1 -1 $-1 $36 $34 $52 #
vertex $-1 -1 $-1 $35 0 $66 #
ellipse-curve $-1 -1 $-1 2 1.5 10 -0 -0 -1 -0.500000000000000222 0 0 1 I I #
loop $-1 -1 $-1 $63 $67 $52 #
face $68 -1 $-1 $69 $48 $6 $-1 $70 forward single #
point $-1 -1 $-1 -1.500000000000000222 1.5 10 #
ATTRIB_CUSTOM-attrib $-1 -1 $-1 $40 $21 @27 NEUTRON_Material_attrib_def 1 @36 c36dbe73-67cd-47c0-87b6-6864792aa665 #
DXID-attrib $-1 -1 $71 $41 $30 @10 ASM ENTITY @1 4 #
rgb_color-st-attrib $-1 -1 $72 $-1 $42 0.9647058823529411908 0.9647058823529411908 0.9529411764705881804 1 #
face $73 -1 $-1 $74 $75 $6 $-1 $76 forward single #
loop $-1 -1 $-1 $-1 $77 $42 #
sphere-surface $-1 -1 $-1 2 -1.5 10 -0.5 1 0 0 0 0 1 forward_v I I I I #
coedge $-1 -1 $-1 $60 $60 $67 $78 reversed $43 0 $-1 #
coedge $-1 -1 $-1 $61 $61 $45 $62 forward $79 0 $-1 #
edge $-1 -1 $-1 $80 -3.141592653589793116 $80 3.141592653589793116 $61 $81 forward @7 unknown #
loop $-1 -1 $-1 $79 $46 $52 #
vertex $-1 -1 $-1 $47 0 $82 #
ellipse-curve $-1 -1 $-1 0 1.5 10 -0 -0 -1 -0.499999999999999889 0 0 1 I I #
point $-1 -1 $-1 2.5 1.5 10 #
coedge $-1 -1 $-1 $67 $67 $60 $78 forward $51 0 $-1 #
DXID-attrib $-1 -1 $-1 $-1 $52 @10 ASM ENTITY @2 45 #
face $83 -1 $-1 $-1 $84 $6 $-1 $85 forward single #
plane-surface $-1 -1 $-1 0 0 10 0 0 1 10 0 0 forward_v I I I I #
ATTRIB_CUSTOM-attrib $-1 -1 $-1 $55 $30 @27 NEUTRON_Material_attrib_def 1 @36 ea75824e-1c1f-4a5e-aed2-65ff45bb243f #
DXID-attrib $-1 -1 $86 $56 $42 @10 ASM ENTITY @1 5 #
rgb_color-st-attrib $-1 -1 $87 $-1 $57 0.9647058823529411908 0.9647058823529411908 0.9529411764705881804 1 #
face $88 -1 $-1 $89 $90 $6 $-1 $91 forward single #
loop $-1 -1 $-1 $-1 $92 $57 #
sphere-surface $-1 -1 $-1 1.250000000000000222 1.25 0 -0.5 1 0 0 0 0 1 forward_v I I I I #
coedge $-1 -1 $-1 $77 $77 $93 $94 reversed $58 0 $-1 #
edge $-1 -1 $-1 $95 -3.141592653589793116 $95 3.141592653589793116 $67 $96 forward @7 unknown #
loop $-1 -1 $-1 $97 $61 $52 #
vertex $-1 -1 $-1 $62 0 $98 #
ellipse-curve $-1 -1 $-1 -2 -1.5 10 -0 -0 -1 -0.499999999999999889 0 0 1 I I #
point $-1 -1 $-1 0.499999999999999889 1.5 10 #
DXID-attrib $-1 -1 $-1 $-1 $69 @10 ASM ENTITY @2 46 #
loop $-1 -1 $-1 $99 $100 $69 #
plane-surface $-1 -1 $-1 -4.999999999999999112 -5 0 0 -1 0 10 0 0 forward_v I I I I #
ATTRIB_CUSTOM-attrib $-1 -1 $-1 $72 $42 @27 NEUTRON_Material_attrib_def 1 @36 386f0152-40ca-40d8-b4a6-31f1ab694228 #
DXID-attrib $-1 -1 $101 $73 $57 @10 ASM ENTITY @1 6 #
rgb_color-st-attrib $-1 -1 $102 $-1 $74 0.9647058823529411908 0.9647058823529411908 0.9529411764705881804 1 #
face $103 -1 $-1 $104 $105 $6 $-1 $106 forward single #
loop $-1 -1 $-1 $-1 $107 $74 #
sphere-surface $-1 -1 $-1 1.250000000000000222 -1.25 0 -0.5 1 0 0 0 0 1 forward_v I I I I #
coedge $-1 -1 $-1 $92 $92 $108 $109 reversed $75 0 $-1 #
coedge $-1 -1 $-1 $93 $93 $77 $94 forward $97 0 $-1 #
edge $-1 -1 $-1 $110 -3.141592653589793116 $110 3.141592653589793116 $93 $111 forward @7 unknown #
vertex $-1 -1 $-1 $78 0 $112 #
ellipse-curve $-1 -1 $-1 0 -1.5 10 -0 -0 -1 -0.499999999999999889 0 0 1 I I #
loop $-1 -1 $-1 $113 $93 $52 #
point $-1 -1 $-1 -1.500000000000000222 -1.5 10 #
loop $-1 -1 $-1 $-1 $114 $69 #
coedge $-1 -1 $-1 $100 $100 $115 $116 forward $84 0 $-1 #
ATTRIB_CUSTOM-attrib $-1 -1 $-1 $87 $57 @27 NEUTRON_Material_attrib_def 1 @36 6fc12a04-d861-47e5-aa67-a418da1a0e9e #
DXID-attrib $-1 -1 $117 $88 $74 @10 ASM ENTITY @1 7 #
rgb_color-st-attrib $-1 -1 $118 $-1 $89 0.9647058823529411908 0.9647058823529411908 0.9529411764705881804 1 #
face $119 -1 $-1 $120 $121 $6 $-1 $122 forward single #
loop $-1 -1 $-1 $-1 $123 $89 #
sphere-surface $-1 -1 $-1 -1.249999999999999778 -1.25 0 -0.5 1 0 0 0 0 1 forward_v I I I I #
coedge $-1 -1 $-1 $107 $107 $124 $125 reversed $90 0 $-1 #
coedge $-1 -1 $-1 $108 $108 $92 $109 forward $126 0 $-1 #
edge $-1 -1 $-1 $127 -3.141592653589793116 $127 3.141592653589793116 $108 $128 forward @7 unknown #
vertex $-1 -1 $-1 $94 0 $129 #
ellipse-curve $-1 -1 $-1 2 -1.5 10 -0 -0 -1 -0.500000000000000222 0 0 1 I I #
point $-1 -1 $-1 0.499999999999999889 -1.5 10 #
loop $-1 -1 $-1 $-1 $130 $52 #
coedge $-1 -1 $-1 $131 $132 $133 $134 reversed $99 0 $-1 #
coedge $-1 -1 $-1 $115 $115 $100 $116 reversed $135 0 $-1 #
edge $-1 -1 $-1 $136 -4.712388980384689674 $136 1.570796326794896558 $100 $137 forward @7 unknown #
ATTRIB_CUSTOM-attrib $-1 -1 $-1 $102 $74 @27 NEUTRON_Material_attrib_def 1 @36 54c7886f-8455-4933-976a-292c6fdb1396 #
DXID-attrib $-1 -1 $138 $103 $89 @10 ASM ENTITY @1 8 #
rgb_color-st-attrib $-1 -1 $139 $-1 $104 0.9647058823529411908 0.9647058823529411908 0.9529411764705881804 1 #
face $140 -1 $-1 $141 $142 $6 $-1 $143 forward single #
loop $-1 -1 $-1 $-1 $144 $104 #
sphere-surface $-1 -1 $-1 0 0 0 -0.5 1 0 0 0 0 1 forward_v I I I I #
coedge $-1 -1 $-1 $123 $123 $145 $146 reversed $105 0 $-1 #
coedge $-1 -1 $-1 $124 $124 $107 $125 forward $147 0 $-1 #
edge $-1 -1 $-1 $148 -3.141592653589793116 $148 3.141592653589793116 $124 $149 forward @7 unknown #
loop $-1 -1 $-1 $147 $108 $150 #
vertex $-1 -1 $-1 $109 0 $151 #
ellipse-curve $-1 -1 $-1 1.250000000000000222 1.25 0 0 0 1 0.500000000000000222 0 0 1 I I #
point $-1 -1 $-1 2.5 -1.5 10 #
coedge $-1 -1 $-1 $152 $153 $154 $155 reversed $113 0 $-1 #
coedge $-1 -1 $-1 $156 $114 $157 $158 reversed $99 0 $-1 #
coedge $-1 -1 $-1 $114 $156 $159 $160 reversed $99 0 $-1 #
coedge $-1 -1 $-1 $161 $162 $114 $134 forward $163 0 $-1 #
edge $-1 -1 $-1 $164 -0.9000000000000000222 $165 -0.1000000000000000056 $114 $166 forward @7 tangent #
loop $-1 -1 $-1 $-1 $115 $167 #
vertex $-1 -1 $-1 $116 0 $168 #
ellipse-curve $-1 -1 $-1 0 -5 5 0 1 0 0.5000000000000004441 0 0 1 I I #
ATTRIB_CUSTOM-attrib $-1 -1 $-1 $118 $89 @27 NEUTRON_Material_attrib_def 1 @36 16693990-25ac-477d-b9c6-f5a908dd8ed1 #
DXID-attrib $-1 -1 $169 $119 $104 @10 ASM ENTITY @1 9 #
rgb_color-st-attrib $-1 -1 $170 $-1 $120 0.9647058823529411908 0.9647058823529411908 0.9529411764705881804 1 #
face $171 -1 $-1 $172 $173 $6 $-1 $174 forward single #
loop $-1 -1 $-1 $-1 $175 $120 #
sphere-surface $-1 -1 $-1 -1.249999999999999778 1.25 0 -0.5 1 0 0 0 0 1 forward_v I I I I #
coedge $-1 -1 $-1 $144 $144 $176 $177 reversed $121 0 $-1 #
coedge $-1 -1 $-1 $145 $145 $123 $146 forward $178 0 $-1 #
edge $-1 -1 $-1 $179 -3.141592653589793116 $179 3.141592653589793116 $145 $180 forward @7 unknown #
loop $-1 -1 $-1 $181 $124 $150 #
vertex $-1 -1 $-1 $125 0 $182 #
ellipse-curve $-1 -1 $-1 1.250000000000000222 -1.25 0 0 0 1 0.500000000000000222 0 0 1 I I #
face $183 -1 $-1 $184 $178 $6 $-1 $185 reversed single #
point $-1 -1 $-1 0.750000000000000111 1.25 0 #
coedge $-1 -1 $-1 $186 $130 $187 $188 reversed $113 0 $-1 #
coedge $-1 -1 $-1 $130 $189 $190 $191 reversed $113 0 $-1 #
coedge $-1 -1 $-1 $192 $193 $130 $155 forward $194 0 $-1 #
edge $-1 -1 $-1 $195 -0.7853981633974495002 $196 0.7853981633974471688 $130 $197 forward @7 tangent #
coedge $-1 -1 $-1 $132 $131 $198 $199 reversed $99 0 $-1 #
coedge $-1 -1 $-1 $200 $201 $131 $158 forward $202 0 $-1 #
edge $-1 -1 $-1 $203 -0.09999999999999992228 $164 0.5999999999999998668 $131 $204 forward @7 tangent #
coedge $-1 -1 $-1 $205 $206 $132 $160 forward $207 0 $-1 #
edge $-1 -1 $-1 $165 -0.5999999999999998668 $208 0.09999999999999992228 $132 $209 forward @7 tangent #
coedge $-1 -1 $-1 $210 $133 $211 $212 forward $163 0 $-1 #
coedge $-1 -1 $-1 $133 $210 $213 $214 forward $163 0 $-1 #
loop $-1 -1 $-1 $-1 $162 $215 #
vertex $-1 -1 $-1 $134 0 $216 #
vertex $-1 -1 $-1 $134 1 $217 #
straight-curve $-1 -1 $-1 3.499999999999998668 -5 0 0 0 -10 F -1.465000999999999998 F 0.4650010000000000532 #
face $218 -1 $-1 $219 $135 $6 $-1 $220 forward single #
point $-1 -1 $-1 0 -5 4.5 #
ATTRIB_CUSTOM-attrib $-1 -1 $-1 $139 $104 @27 NEUTRON_Material_attrib_def 1 @36 65a43922-799a-43ef-8d4a-7e88ede3fd30 #
DXID-attrib $-1 -1 $221 $140 $120 @10 ASM ENTITY @2 10 #
rgb_color-st-attrib $-1 -1 $222 $-1 $141 0.9647058823529411908 0.9647058823529411908 0.9529411764705881804 1 #
face $223 -1 $-1 $224 $225 $6 $-1 $226 forward single #
loop $-1 -1 $-1 $-1 $227 $141 #
sphere-surface $-1 -1 $-1 -1.500000000000000222 5 5 -0.5 0 0 -1 0 1 0 forward_v I I I I #
coedge $-1 -1 $-1 $175 $175 $228 $229 reversed $142 0 $-1 #
coedge $-1 -1 $-1 $176 $176 $144 $177 forward $230 0 $-1 #
edge $-1 -1 $-1 $231 -3.141592653589793116 $231 3.141592653589793116 $176 $232 forward @7 unknown #
loop $-1 -1 $-1 $233 $145 $150 #
vertex $-1 -1 $-1 $146 0 $234 #
ellipse-curve $-1 -1 $-1 -1.249999999999999778 -1.25 0 0 0 1 0.500000000000000222 0 0 1 I I #
loop $-1 -1 $-1 $-1 $235 $150 #
point $-1 -1 $-1 0.750000000000000111 -1.25 0 #
DXID-attrib $-1 -1 $-1 $-1 $150 @10 ASM ENTITY @2 42 #
face $236 -1 $-1 $237 $238 $6 $-1 $239 forward single #
plane-surface $-1 -1 $-1 0 0 0 0 0 1 10 0 0 forward_v I I I I #
coedge $-1 -1 $-1 $240 $152 $241 $242 reversed $113 0 $-1 #
coedge $-1 -1 $-1 $243 $244 $152 $188 forward $245 0 $-1 #
edge $-1 -1 $-1 $246 -0.5999999999999999778 $195 0.0999999999999999778 $152 $247 forward @7 tangent #
coedge $-1 -1 $-1 $153 $248 $249 $250 reversed $113 0 $-1 #
coedge $-1 -1 $-1 $201 $200 $153 $191 forward $202 0 $-1 #
edge $-1 -1 $-1 $196 -0.5999999999999998668 $251 0.09999999999999992228 $153 $252 forward @7 tangent #
coedge $-1 -1 $-1 $213 $154 $200 $253 reversed $194 0 $-1 #
coedge $-1 -1 $-1 $154 $213 $243 $254 reversed $194 0 $-1 #
loop $-1 -1 $-1 $-1 $192 $255 #
vertex $-1 -1 $-1 $155 0 $256 #
vertex $-1 -1 $-1 $155 1 $257 #
ellipse-curve $-1 -1 $-1 3.499999999999999112 -3.5 10 -0 -0 -1 0.3535533905932732868 -0.3535533905932741194 0 1 F -0.7853981633974495002 F 0.7853981633974471688 #
coedge $-1 -1 $-1 $258 $259 $156 $199 forward $260 0 $-1 #
edge $-1 -1 $-1 $208 0.1000000000000000056 $203 0.9000000000000000222 $156 $261 forward @7 tangent #
coedge $-1 -1 $-1 $190 $157 $192 $253 forward $202 0 $-1 #
coedge $-1 -1 $-1 $157 $190 $262 $263 forward $202 0 $-1 #
loop $-1 -1 $-1 $-1 $200 $264 #
vertex $-1 -1 $-1 $199 1 $265 #
straight-curve $-1 -1 $-1 -2.499999999999999556 -5 9 10 0 0 F -0.560000999999999971 F 1.060000999999999971 #
coedge $-1 -1 $-1 $266 $159 $267 $268 forward $207 0 $-1 #
coedge $-1 -1 $-1 $159 $266 $269 $270 forward $207 0 $-1 #
loop $-1 -1 $-1 $-1 $206 $271 #
vertex $-1 -1 $-1 $199 0 $272 #
straight-curve $-1 -1 $-1 -2.499999999999999556 -5 1 -10 0 0 F -1.060000999999999971 F 0.560000999999999971 #
coedge $-1 -1 $-1 $162 $161 $273 $274 forward $163 0 $-1 #
coedge $-1 -1 $-1 $269 $275 $161 $212 reversed $276 0 $-1 #
edge $-1 -1 $-1 $165 3.700743415417188139e-16 $277 1.570796326794896558 $161 $278 reversed @7 tangent #
coedge $-1 -1 $-1 $193 $192 $162 $214 reversed $194 0 $-1 #
edge $-1 -1 $-1 $279 -0 $164 1.570796326794896558 $162 $280 reversed @7 tangent #
face $281 -1 $-1 $282 $163 $6 $-1 $283 forward single #
point $-1 -1 $-1 3.499999999999998668 -5 9 #
point $-1 -1 $-1 3.499999999999999112 -5 1 #
rgb_color-st-attrib $-1 -1 $284 $-1 $167 0.9647058823529411908 0.9647058823529411908 0.9529411764705881804 1 #
face $285 -1 $-1 $286 $287 $6 $-1 $288 forward single #
sphere-surface $-1 -1 $-1 0 -5 5 -0.5 0 0 -1 0 1 0 forward_v I I I I #
ATTRIB_CUSTOM-attrib $-1 -1 $-1 $170 $120 @27 NEUTRON_Material_attrib_def 1 @36 311ad848-271c-40e4-af96-c539d7862187 #
DXID-attrib $-1 -1 $289 $171 $141 @10 ASM ENTITY @2 11 #
rgb_color-st-attrib $-1 -1 $290 $-1 $172 0.9647058823529411908 0.9647058823529411908 0.9529411764705881804 1 #
face $291 -1 $-1 $292 $293 $6 $-1 $294 forward single #
loop $-1 -1 $-1 $-1 $295 $172 #
sphere-surface $-1 -1 $-1 1.500000000000000222 5 5 -0.5 0 0 -1 0 1 0 forward_v I I I I #
coedge $-1 -1 $-1 $227 $227 $296 $297 reversed $173 0 $-1 #
coedge $-1 -1 $-1 $228 $228 $175 $229 forward $233 0 $-1 #
edge $-1 -1 $-1 $298 -3.141592653589793116 $298 3.141592653589793116 $228 $299 forward @7 unknown #
loop $-1 -1 $-1 $126 $176 $150 #
vertex $-1 -1 $-1 $177 0 $300 #
ellipse-curve $-1 -1 $-1 0 0 0 0 0 1 0.5 0 0 1 I I #
loop $-1 -1 $-1 $230 $228 $150 #
point $-1 -1 $-1 -1.75 -1.25 0 #
coedge $-1 -1 $-1 $301 $302 $303 $304 reversed $181 0 $-1 #
DXID-attrib $-1 -1 $-1 $-1 $184 @10 ASM ENTITY @2 43 #
face $305 -1 $-1 $52 $306 $6 $-1 $307 forward single #
loop $-1 -1 $-1 $308 $309 $184 #
plane-surface $-1 -1 $-1 4.999999999999999112 -5 0 1 0 0 0 10 0 forward_v I I I I #
coedge $-1 -1 $-1 $310 $186 $311 $312 reversed $113 0 $-1 #
coedge $-1 -1 $-1 $313 $314 $186 $242 forward $315 0 $-1 #
edge $-1 -1 $-1 $316 -0.785398163397448279 $246 0.785398163397448279 $186 $317 forward @7 tangent #
coedge $-1 -1 $-1 $318 $187 $193 $254 forward $245 0 $-1 #
coedge $-1 -1 $-1 $187 $318 $313 $319 forward $245 0 $-1 #
loop $-1 -1 $-1 $-1 $244 $282 #
vertex $-1 -1 $-1 $242 1 $320 #
straight-curve $-1 -1 $-1 3.999999999999999112 -2.5 10 -0 -10 -0 F -1.060000999999999971 F 0.560000999999999971 #
coedge $-1 -1 $-1 $189 $310 $321 $322 reversed $113 0 $-1 #
coedge $-1 -1 $-1 $323 $262 $189 $250 forward $324 0 $-1 #
edge $-1 -1 $-1 $251 -0.785398163397448279 $325 0.785398163397448279 $189 $326 forward @7 tangent #
vertex $-1 -1 $-1 $250 0 $327 #
straight-curve $-1 -1 $-1 -2.499999999999999556 -4 10 -10 0 0 F -1.060000999999999971 F 0.560000999999999971 #
edge $-1 -1 $-1 $164 0 $196 1.570796326794896558 $200 $328 forward @7 tangent #
edge $-1 -1 $-1 $195 0 $279 1.570796326794896558 $243 $329 forward @7 tangent #
face $330 -1 $-1 $215 $194 $6 $-1 $331 forward single #
point $-1 -1 $-1 3.999999999999999112 -3.5 10 #
point $-1 -1 $-1 3.499999999999999112 -4 10 #
coedge $-1 -1 $-1 $332 $198 $333 $334 forward $260 0 $-1 #
coedge $-1 -1 $-1 $198 $332 $335 $336 forward $260 0 $-1 #
loop $-1 -1 $-1 $-1 $258 $337 #
straight-curve $-1 -1 $-1 -3.499999999999998668 -5 0 0 0 10 F -0.4650010000000000532 F 1.465000999999999998 #
coedge $-1 -1 $-1 $249 $333 $201 $263 reversed $324 0 $-1 #
edge $-1 -1 $-1 $251 0 $203 1.570796326794896558 $201 $338 forward @7 tangent #
face $339 -1 $-1 $340 $202 $6 $-1 $341 forward single #
point $-1 -1 $-1 -3.499999999999998668 -5 9 #
coedge $-1 -1 $-1 $206 $205 $301 $342 forward $207 0 $-1 #
coedge $-1 -1 $-1 $335 $343 $205 $268 reversed $344 0 $-1 #
edge $-1 -1 $-1 $208 0 $345 1.570796326794896558 $205 $346 forward @7 tangent #
coedge $-1 -1 $-1 $303 $211 $206 $270 reversed $276 0 $-1 #
edge $-1 -1 $-1 $347 0 $165 1.570796326794896558 $206 $348 forward @7 tangent #
face $349 -1 $-1 $350 $207 $6 $-1 $351 forward single #
point $-1 -1 $-1 -3.499999999999998668 -5 1 #
coedge $-1 -1 $-1 $352 $353 $210 $274 reversed $354 0 $-1 #
edge $-1 -1 $-1 $277 0.1000000000000000056 $279 0.9000000000000000222 $273 $355 forward @7 tangent #
coedge $-1 -1 $-1 $211 $303 $356 $357 reversed $276 0 $-1 #
loop $-1 -1 $-1 $-1 $303 $358 #
vertex $-1 -1 $-1 $359 1 $360 #
ellipse-curve $-1 -1 $-1 3.499999999999998668 -3.5 1 0 0 -1 0 -1.500000000000000222 0 1 F -1.570796326794896558 F -0 #
vertex $-1 -1 $-1 $274 1 $361 #
ellipse-curve $-1 -1 $-1 3.499999999999998668 -3.5 9 0 0 1 1.500000000000000222 0 0 1 F -1.570796326794896558 F -0 #
DXID-attrib $-1 -1 $-1 $-1 $215 @10 ASM ENTITY @2 35 #
face $362 -1 $-1 $264 $245 $6 $-1 $363 forward single #
cone-surface $-1 -1 $-1 3.499999999999998668 -3.5 0 0 0 1 1.060660171779821637 -1.060660171779821637 0 1 I I 0 1 1.500000000000000444 forward I I I I #
DXID-attrib $-1 -1 $364 $218 $167 @10 ASM ENTITY @2 18 #
rgb_color-st-attrib $-1 -1 $365 $-1 $219 0.9647058823529411908 0.9647058823529411908 0.9529411764705881804 1 #
face $366 -1 $-1 $367 $368 $6 $-1 $369 forward single #
loop $-1 -1 $-1 $-1 $370 $219 #
sphere-surface $-1 -1 $-1 4.999999999999999112 1 5 -0.5 0 -1 0 1 0 0 forward_v I I I I #
ATTRIB_CUSTOM-attrib $-1 -1 $-1 $222 $141 @27 NEUTRON_Material_attrib_def 1 @36 216164e2-59dd-49c5-a638-7cb440124d40 #
DXID-attrib $-1 -1 $371 $223 $172 @10 ASM ENTITY @2 12 #
rgb_color-st-attrib $-1 -1 $372 $-1 $224 0.9647058823529411908 0.9647058823529411908 0.9529411764705881804 1 #
face $373 -1 $-1 $374 $375 $6 $-1 $376 forward single #
loop $-1 -1 $-1 $-1 $377 $224 #
sphere-surface $-1 -1 $-1 0 5 5 -0.5 0 0 -1 0 1 0 forward_v I I I I #
coedge $-1 -1 $-1 $295 $295 $378 $379 reversed $225 0 $-1 #
coedge $-1 -1 $-1 $296 $296 $227 $297 forward $306 0 $-1 #
edge $-1 -1 $-1 $380 -4.712388980384689674 $380 1.570796326794896558 $296 $381 forward @7 unknown #
vertex $-1 -1 $-1 $229 0 $382 #
ellipse-curve $-1 -1 $-1 -1.249999999999999778 1.25 0 0 0 1 0.5 0 0 1 I I #
point $-1 -1 $-1 -0.5 6.123233995736766036e-17 0 #
coedge $-1 -1 $-1 $383 $235 $266 $342 reversed $181 0 $-1 #
coedge $-1 -1 $-1 $235 $384 $385 $386 reversed $181 0 $-1 #
coedge $-1 -1 $-1 $275 $269 $235 $304 forward $276 0 $-1 #
edge $-1 -1 $-1 $347 -0.7853981633974470578 $387 0.7853981633974495002 $235 $388 forward @7 tangent #
DXID-attrib $-1 -1 $-1 $-1 $237 @10 ASM ENTITY @2 44 #
loop $-1 -1 $-1 $389 $296 $237 #
plane-surface $-1 -1 $-1 4.999999999999999112 5 0 0 1 0 -10 0 0 forward_v I I I I #
loop $-1 -1 $-1 $354 $390 $184 #
coedge $-1 -1 $-1 $309 $309 $370 $391 forward $238 0 $-1 #
coedge $-1 -1 $-1 $248 $240 $392 $393 reversed $113 0 $-1 #
coedge $-1 -1 $-1 $394 $395 $240 $312 forward $396 0 $-1 #
edge $-1 -1 $-1 $397 -0.5999999999999998668 $316 0.09999999999999992228 $240 $398 forward @7 tangent #
coedge $-1 -1 $-1 $399 $241 $244 $319 reversed $315 0 $-1 #
coedge $-1 -1 $-1 $241 $399 $394 $400 reversed $315 0 $-1 #
loop $-1 -1 $-1 $-1 $313 $401 #
vertex $-1 -1 $-1 $242 0 $402 #
ellipse-curve $-1 -1 $-1 3.499999999999998668 3.5 10 -0 -0 -1 0.3535533905932740639 0.3535533905932740639 0 1 F -0.785398163397448279 F 0.785398163397448279 #
coedge $-1 -1 $-1 $244 $243 $353 $403 forward $245 0 $-1 #
edge $-1 -1 $-1 $404 0 $246 1.570796326794896558 $244 $405 forward @7 tangent #
point $-1 -1 $-1 3.999999999999999112 3.5 10 #
coedge $-1 -1 $-1 $406 $407 $248 $322 forward $408 0 $-1 #
edge $-1 -1 $-1 $325 -0.5999999999999999778 $409 0.0999999999999999778 $248 $410 forward @7 tangent #
coedge $-1 -1 $-1 $333 $249 $407 $411 reversed $324 0 $-1 #
loop $-1 -1 $-1 $-1 $323 $412 #
vertex $-1 -1 $-1 $250 1 $413 #
ellipse-curve $-1 -1 $-1 -3.499999999999998668 -3.5 10 -0 -0 -1 -0.3535533905932740639 -0.3535533905932740639 0 1 F -0.785398163397448279 F 0.785398163397448279 #
point $-1 -1 $-1 -3.499999999999998668 -4 10 #
ellipse-curve $-1 -1 $-1 3.499999999999999112 -4 9 -1 0 0 0 -0.999999999999999778 0 1 F 0 F 1.570796326794896558 #
ellipse-curve $-1 -1 $-1 3.999999999999999112 -3.5 9 0 1 0 0 0 0.999999999999999778 1 F 0 F 1.570796326794896558 #
DXID-attrib $-1 -1 $-1 $-1 $255 @10 ASM ENTITY @2 34 #
torus-surface $-1 -1 $-1 3.499999999999999112 -3.5 9 0 0 1 0.5000000000000004441 0.999999999999999778 1 0 0 forward_v I I I I #
coedge $-1 -1 $-1 $259 $258 $414 $415 forward $260 0 $-1 #
coedge $-1 -1 $-1 $262 $323 $258 $334 reversed $324 0 $-1 #
edge $-1 -1 $-1 $203 -0 $416 1.570796326794896558 $258 $417 reversed @7 tangent #
coedge $-1 -1 $-1 $418 $267 $259 $336 reversed $344 0 $-1 #
edge $-1 -1 $-1 $419 -0 $208 1.570796326794896558 $259 $420 reversed @7 tangent #
face $421 -1 $-1 $401 $260 $6 $-1 $422 forward single #
ellipse-curve $-1 -1 $-1 -3.499999999999998668 -4 9 1 0 0 0 0 0.999999999999999778 1 F 0 F 1.570796326794896558 #
DXID-attrib $-1 -1 $-1 $-1 $264 @10 ASM ENTITY @2 37 #
face $423 -1 $-1 $271 $408 $6 $-1 $424 forward single #
cone-surface $-1 -1 $-1 -2.499999999999999556 -4 9 1 0 0 0 -0.7071067811865479058 0.7071067811865471286 1 I I 0 1 1 forward I I I I #
edge $-1 -1 $-1 $345 -0.09999999999999992228 $347 0.5999999999999998668 $301 $425 forward @7 tangent #
coedge $-1 -1 $-1 $267 $418 $383 $426 forward $344 0 $-1 #
loop $-1 -1 $-1 $-1 $335 $427 #
vertex $-1 -1 $-1 $426 1 $428 #
ellipse-curve $-1 -1 $-1 -3.499999999999998668 -4 1 1 0 0 0 -0.999999999999999778 0 1 F 0 F 1.570796326794896558 #
vertex $-1 -1 $-1 $304 0 $429 #
ellipse-curve $-1 -1 $-1 3.499999999999999112 -4 1 -1 -0 -0 0 0 -1 1 F 0 F 1.570796326794896558 #
DXID-attrib $-1 -1 $-1 $-1 $271 @10 ASM ENTITY @2 39 #
face $430 -1 $-1 $431 $432 $6 $-1 $433 forward single #
cone-surface $-1 -1 $-1 -2.499999999999999556 -4 1 1 0 0 0 -0.7071067811865473507 -0.7071067811865476838 1 I I 0 1 1 forward I I I I #
coedge $-1 -1 $-1 $434 $273 $435 $359 reversed $354 0 $-1 #
coedge $-1 -1 $-1 $273 $434 $318 $403 reversed $354 0 $-1 #
loop $-1 -1 $-1 $-1 $352 $184 #
straight-curve $-1 -1 $-1 4.999999999999999112 -3.5 0 0 0 10 F -0.4650010000000000532 F 1.465000999999999998 #
coedge $-1 -1 $-1 $385 $435 $275 $357 forward $436 0 $-1 #
edge $-1 -1 $-1 $277 0 $387 1.570796326794896558 $356 $437 forward @7 tangent #
face $438 -1 $-1 $439 $276 $6 $-1 $440 forward single #
edge $-1 -1 $-1 $441 -0.5999999999999999778 $277 0.0999999999999999778 $352 $442 forward @7 tangent #
point $-1 -1 $-1 4.999999999999999112 -3.5 1 #
point $-1 -1 $-1 4.999999999999999112 -3.5 9 #
DXID-attrib $-1 -1 $-1 $-1 $282 @10 ASM ENTITY @2 36 #
cone-surface $-1 -1 $-1 3.999999999999999112 -2.5 9 0 1 0 0.7071067811865479058 0 0.7071067811865471286 1 I I 0 1 1 forward I I I I #
ATTRIB_CUSTOM-attrib $-1 -1 $-1 $284 $167 @27 NEUTRON_Material_attrib_def 1 @36 8cf1b962-6152-48da-93d3-67fc974e33e0 #
DXID-attrib $-1 -1 $443 $285 $219 @10 ASM ENTITY @2 19 #
rgb_color-st-attrib $-1 -1 $444 $-1 $286 0.9647058823529411908 0.9647058823529411908 0.9529411764705881804 1 #
face $445 -1 $-1 $427 $446 $6 $-1 $447 forward single #
loop $-1 -1 $-1 $-1 $448 $286 #
sphere-surface $-1 -1 $-1 4.999999999999999112 -1 5 -0.5 0 -1 0 1 0 0 forward_v I I I I #
coedge $-1 -1 $-1 $370 $370 $309 $391 reversed $287 0 $-1 #
ATTRIB_CUSTOM-attrib $-1 -1 $-1 $290 $172 @27 NEUTRON_Material_attrib_def 1 @36 ac320ff2-4739-421b-9b9b-1177b0de24ce #
DXID-attrib $-1 -1 $449 $291 $224 @10 ASM ENTITY @2 13 #
rgb_color-st-attrib $-1 -1 $450 $-1 $292 0.9647058823529411908 0.9647058823529411908 0.9529411764705881804 1 #
face $451 -1 $-1 $452 $453 $6 $-1 $454 forward single #
loop $-1 -1 $-1 $-1 $455 $292 #
sphere-surface $-1 -1 $-1 -4.999999999999999112 -0.9999999999999986677 4.000000000000001776 -0.5 0 -1 0 1 0 0 forward_v I I I I #
coedge $-1 -1 $-1 $377 $377 $456 $457 reversed $293 0 $-1 #
coedge $-1 -1 $-1 $378 $378 $295 $379 forward $458 0 $-1 #
edge $-1 -1 $-1 $459 -4.712388980384689674 $459 1.570796326794896558 $378 $460 forward @7 unknown #
vertex $-1 -1 $-1 $297 0 $461 #
ellipse-curve $-1 -1 $-1 -1.500000000000000222 5 5 0 -1 0 -0.499999999999999889 0 0 1 I I #
point $-1 -1 $-1 -1.75 1.25 0 #
coedge $-1 -1 $-1 $462 $301 $343 $426 reversed $181 0 $-1 #
coedge $-1 -1 $-1 $302 $463 $464 $465 reversed $181 0 $-1 #
coedge $-1 -1 $-1 $466 $356 $302 $386 forward $436 0 $-1 #
edge $-1 -1 $-1 $387 -0.0999999999999999778 $467 0.5999999999999999778 $302 $468 forward @7 tangent #
vertex $-1 -1 $-1 $304 1 $469 #
ellipse-curve $-1 -1 $-1 3.499999999999999112 -3.5 0 0 0 1 0.3535533905932736753 -0.353553390593274508 0 1 F -0.7853981633974470578 F 0.7853981633974495002 #
loop $-1 -1 $-1 $458 $456 $237 #
coedge $-1 -1 $-1 $390 $390 $448 $470 forward $308 0 $-1 #
edge $-1 -1 $-1 $471 -4.712388980384689674 $471 1.570796326794896558 $309 $472 forward @7 unknown #
coedge $-1 -1 $-1 $473 $474 $310 $393 forward $475 0 $-1 #
edge $-1 -1 $-1 $409 -0.7853981633974495002 $397 0.7853981633974471688 $310 $476 forward @7 tangent #
coedge $-1 -1 $-1 $477 $311 $314 $400 forward $396 0 $-1 #
coedge $-1 -1 $-1 $311 $477 $473 $478 forward $396 0 $-1 #
loop $-1 -1 $-1 $-1 $395 $479 #
vertex $-1 -1 $-1 $393 1 $480 #
straight-curve $-1 -1 $-1 2.499999999999999556 4 10 10 0 0 F -1.060000999999999971 F 0.560000999999999971 #
coedge $-1 -1 $-1 $314 $313 $481 $482 reversed $315 0 $-1 #
edge $-1 -1 $-1 $316 0 $483 1.570796326794896558 $394 $484 forward @7 tangent #
face $485 -1 $-1 $486 $315 $6 $-1 $487 forward single #
point $-1 -1 $-1 3.499999999999998668 4 10 #
edge $-1 -1 $-1 $279 -0.0999999999999999778 $404 0.5999999999999999778 $353 $488 forward @7 tangent #
vertex $-1 -1 $-1 $489 0 $490 #
ellipse-curve $-1 -1 $-1 3.999999999999999112 3.5 9 -0 -1 -0 0.999999999999999778 0 0 1 F 0 F 1.570796326794896558 #
coedge $-1 -1 $-1 $491 $321 $474 $492 forward $408 0 $-1 #
coedge $-1 -1 $-1 $321 $491 $323 $411 forward $408 0 $-1 #
loop $-1 -1 $-1 $-1 $407 $340 #
vertex $-1 -1 $-1 $393 0 $493 #
straight-curve $-1 -1 $-1 -3.999999999999999112 2.5 10 0 10 0 F -1.060000999999999971 F 0.560000999999999971 #
edge $-1 -1 $-1 $416 0 $325 1.570796326794896558 $407 $494 forward @7 tangent #
face $495 -1 $-1 $337 $324 $6 $-1 $496 forward single #
point $-1 -1 $-1 -3.999999999999999112 -3.5 10 #
coedge $-1 -1 $-1 $497 $498 $332 $415 reversed $499 0 $-1 #
edge $-1 -1 $-1 $416 -0.9000000000000000222 $419 -0.1000000000000000056 $414 $500 forward @7 tangent #
vertex $-1 -1 $-1 $415 0 $501 #
ellipse-curve $-1 -1 $-1 -3.499999999999998668 -3.5 9 0 0 1 0 -1.500000000000000222 0 1 F -1.570796326794896558 F -0 #
coedge $-1 -1 $-1 $343 $335 $502 $503 reversed $344 0 $-1 #
vertex $-1 -1 $-1 $504 0 $505 #
ellipse-curve $-1 -1 $-1 -3.499999999999998668 -3.5 1 -0 -0 -1 -1.500000000000000222 0 0 1 F -1.570796326794896558 F -0 #
DXID-attrib $-1 -1 $-1 $-1 $337 @10 ASM ENTITY @2 30 #
cone-surface $-1 -1 $-1 -3.499999999999998668 -3.5 0 0 0 1 -1.060660171779821637 -1.060660171779821637 0 1 I I 0 1 1.500000000000000444 forward I I I I #
DXID-attrib $-1 -1 $-1 $-1 $340 @10 ASM ENTITY @2 38 #
cone-surface $-1 -1 $-1 -3.999999999999999112 2.5 9 0 -1 0 -0.7071067811865479058 0 0.7071067811865471286 1 I I 0 1 1 forward I I I I #
straight-curve $-1 -1 $-1 -2.499999999999999556 -4 0 10 0 0 F -0.560000999999999971 F 1.060000999999999971 #
edge $-1 -1 $-1 $506 -0.785398163397448279 $345 0.785398163397448279 $383 $507 forward @7 tangent #
face $508 -1 $-1 $509 $344 $6 $-1 $510 forward single #
point $-1 -1 $-1 -3.499999999999998668 -4 0 #
point $-1 -1 $-1 3.499999999999999112 -4 0 #
DXID-attrib $-1 -1 $-1 $-1 $350 @10 ASM ENTITY @2 40 #
face $511 -1 $-1 $150 $512 $6 $-1 $513 forward single #
loop $-1 -1 $-1 $-1 $514 $350 #
cone-surface $-1 -1 $-1 2.499999999999999556 4 1 -1 0 0 0 0.7071067811865473507 -0.7071067811865476838 1 I I 0 1 1 forward I I I I #
coedge $-1 -1 $-1 $353 $352 $515 $489 reversed $354 0 $-1 #
coedge $-1 -1 $-1 $356 $466 $352 $359 forward $436 0 $-1 #
loop $-1 -1 $-1 $-1 $466 $439 #
ellipse-curve $-1 -1 $-1 3.999999999999999112 -3.5 1 0 1 0 0.999999999999999778 0 0 1 F 0 F 1.570796326794896558 #
DXID-attrib $-1 -1 $-1 $-1 $358 @10 ASM ENTITY @2 27 #
face $516 -1 $-1 $412 $436 $6 $-1 $517 forward single #
torus-surface $-1 -1 $-1 3.499999999999999112 -3.5 1 0 0 1 0.5000000000000004441 1 1 0 0 forward_v I I I I #
vertex $-1 -1 $-1 $359 0 $518 #
straight-curve $-1 -1 $-1 4.999999999999999112 -2.5 1 -0 -10 -0 F -1.060000999999999971 F 0.560000999999999971 #
ATTRIB_CUSTOM-attrib $-1 -1 $-1 $365 $219 @27 NEUTRON_Material_attrib_def 1 @36 c737ca8f-1ca3-47e2-912e-9c89485c945a #
DXID-attrib $-1 -1 $519 $366 $286 @10 ASM ENTITY @2 20 #
DXID-attrib $-1 -1 $-1 $-1 $367 @10 ASM ENTITY @2 21 #
loop $-1 -1 $-1 $-1 $520 $367 #
torus-surface $-1 -1 $-1 -3.499999999999999112 3.5 1 0 0 -1 0.499999999999999889 0.999999999999999778 -1 0 0 forward_v I I I I #
coedge $-1 -1 $-1 $448 $448 $390 $470 reversed $368 0 $-1 #
ATTRIB_CUSTOM-attrib $-1 -1 $-1 $372 $224 @27 NEUTRON_Material_attrib_def 1 @36 c90d540a-8411-43ba-8df1-ae239722a6ec #
DXID-attrib $-1 -1 $521 $373 $292 @10 ASM ENTITY @2 14 #
rgb_color-st-attrib $-1 -1 $522 $-1 $374 0.9647058823529411908 0.9647058823529411908 0.9529411764705881804 1 #
face $523 -1 $-1 $524 $525 $6 $-1 $526 forward single #
loop $-1 -1 $-1 $-1 $527 $374 #
sphere-surface $-1 -1 $-1 -4.999999999999999112 -0.9999999999999986677 5.999999999999998224 -0.5 0 -1 0 1 0 0 forward_v I I I I #
coedge $-1 -1 $-1 $455 $455 $528 $529 reversed $375 0 $-1 #
coedge $-1 -1 $-1 $456 $456 $377 $457 forward $389 0 $-1 #
edge $-1 -1 $-1 $530 -4.712388980384689674 $530 1.570796326794896558 $456 $531 forward @7 unknown #
loop $-1 -1 $-1 $532 $378 $237 #
vertex $-1 -1 $-1 $379 0 $533 #
ellipse-curve $-1 -1 $-1 1.500000000000000222 5 5 0 -1 0 -0.499999999999999889 0 0 1 I I #
point $-1 -1 $-1 -1.500000000000000222 5 4.5 #
coedge $-1 -1 $-1 $534 $383 $535 $536 reversed $181 0 $-1 #
coedge $-1 -1 $-1 $384 $534 $537 $538 reversed $181 0 $-1 #
coedge $-1 -1 $-1 $539 $540 $384 $465 forward $541 0 $-1 #
edge $-1 -1 $-1 $467 -0.785398163397448279 $542 0.785398163397448279 $384 $543 forward @7 tangent #
coedge $-1 -1 $-1 $435 $385 $540 $544 forward $436 0 $-1 #
vertex $-1 -1 $-1 $465 0 $545 #
straight-curve $-1 -1 $-1 3.999999999999999112 -2.5 0 0 10 0 F -0.560000999999999971 F 1.060000999999999971 #
point $-1 -1 $-1 3.999999999999999112 -3.5 0 #
edge $-1 -1 $-1 $546 -4.712388980384689674 $546 1.570796326794896558 $390 $547 forward @7 unknown #
vertex $-1 -1 $-1 $391 0 $548 #
ellipse-curve $-1 -1 $-1 4.999999999999999112 1 5 -1 -0 -0 0 0.5000000000000004441 0 1 I I #
coedge $-1 -1 $-1 $549 $392 $395 $478 reversed $475 0 $-1 #
coedge $-1 -1 $-1 $392 $549 $406 $492 reversed $475 0 $-1 #
loop $-1 -1 $-1 $-1 $473 $550 #
ellipse-curve $-1 -1 $-1 -3.499999999999999112 3.5 10 -0 -0 -1 -0.3535533905932732868 0.3535533905932741194 0 1 F -0.7853981633974495002 F 0.7853981633974471688 #
coedge $-1 -1 $-1 $395 $394 $551 $552 forward $396 0 $-1 #
edge $-1 -1 $-1 $553 0 $397 1.570796326794896558 $395 $554 forward @7 tangent #
face $555 -1 $-1 $255 $396 $6 $-1 $556 forward single #
point $-1 -1 $-1 -3.499999999999999112 4 10 #
coedge $-1 -1 $-1 $515 $557 $399 $482 forward $558 0 $-1 #
edge $-1 -1 $-1 $483 -0 $404 1.570796326794896558 $481 $559 reversed @7 tangent #
vertex $-1 -1 $-1 $560 1 $561 #
ellipse-curve $-1 -1 $-1 3.499999999999998668 4 9 -1 -0 -0 0 0 0.999999999999999778 1 F 0 F 1.570796326794896558 #
DXID-attrib $-1 -1 $-1 $-1 $401 @10 ASM ENTITY @2 31 #
face $562 -1 $-1 $479 $558 $6 $-1 $563 forward single #
torus-surface $-1 -1 $-1 3.499999999999998668 3.5 9 0 0 1 0.5000000000000004441 0.999999999999999778 1 0 0 forward_v I I I I #
straight-curve $-1 -1 $-1 4.999999999999999112 -2.5 9 0 10 0 F -0.560000999999999971 F 1.060000999999999971 #
edge $-1 -1 $-1 $404 -0.9000000000000000222 $441 -0.1000000000000000056 $434 $564 forward @7 tangent #
point $-1 -1 $-1 4.999999999999999112 3.5 9 #
coedge $-1 -1 $-1 $407 $406 $497 $565 forward $408 0 $-1 #
edge $-1 -1 $-1 $409 0 $566 1.570796326794896558 $406 $567 forward @7 tangent #
point $-1 -1 $-1 -3.999999999999999112 3.5 10 #
ellipse-curve $-1 -1 $-1 -3.999999999999999112 -3.5 9 0 1 0 -0.999999999999999778 0 0 1 F 0 F 1.570796326794896558 #
DXID-attrib $-1 -1 $-1 $-1 $412 @10 ASM ENTITY @2 29 #
torus-surface $-1 -1 $-1 -3.499999999999998668 -3.5 9 0 0 1 0.5000000000000004441 0.999999999999999778 1 0 0 forward_v I I I I #
coedge $-1 -1 $-1 $568 $414 $491 $565 reversed $499 0 $-1 #
coedge $-1 -1 $-1 $414 $568 $569 $504 reversed $499 0 $-1 #
loop $-1 -1 $-1 $-1 $498 $431 #
straight-curve $-1 -1 $-1 -4.999999999999999112 -3.5 0 -0 -0 -10 F -1.465000999999999998 F 0.4650010000000000532 #
point $-1 -1 $-1 -4.999999999999999112 -3.5 9 #
coedge $-1 -1 $-1 $569 $535 $418 $503 forward $570 0 $-1 #
edge $-1 -1 $-1 $506 0 $419 1.570796326794896558 $502 $571 forward @7 tangent #
edge $-1 -1 $-1 $419 -0.5999999999999999778 $572 0.0999999999999999778 $498 $573 forward @7 tangent #
point $-1 -1 $-1 -4.999999999999999112 -3.5 1 #
vertex $-1 -1 $-1 $426 0 $574 #
ellipse-curve $-1 -1 $-1 -3.499999999999998668 -3.5 0 0 0 1 -0.3535533905932740639 -0.3535533905932740639 0 1 F -0.785398163397448279 F 0.785398163397448279 #
DXID-attrib $-1 -1 $-1 $-1 $427 @10 ASM ENTITY @2 22 #
face $575 -1 $-1 $576 $570 $6 $-1 $577 forward single #
torus-surface $-1 -1 $-1 -3.499999999999998668 -3.5 1 0 0 -1 0.5000000000000004441 0.999999999999999778 -1 0 0 forward_v I I I I #
DXID-attrib $-1 -1 $-1 $-1 $431 @10 ASM ENTITY @2 41 #
loop $-1 -1 $-1 $578 $528 $431 #
plane-surface $-1 -1 $-1 -4.999999999999999112 5 0 -1 0 0 0 -10 0 forward_v I I I I #
coedge $-1 -1 $-1 $579 $537 $580 $581 forward $432 0 $-1 #
coedge $-1 -1 $-1 $582 $481 $434 $489 forward $558 0 $-1 #
DXID-attrib $-1 -1 $-1 $-1 $439 @10 ASM ENTITY @2 28 #
cone-surface $-1 -1 $-1 3.999999999999999112 -2.5 1 0 1 0 0.7071067811865473507 0 -0.7071067811865476838 1 I I 0 1 1 forward I I I I #
point $-1 -1 $-1 4.999999999999999112 3.5 1 #
ATTRIB_CUSTOM-attrib $-1 -1 $-1 $444 $286 @27 NEUTRON_Material_attrib_def 1 @36 52798f2c-01f5-4b61-a1e2-3223af2ccc1a #
coedge $-1 -1 $-1 $580 $583 $584 $585 reversed $446 0 $-1 #
ATTRIB_CUSTOM-attrib $-1 -1 $-1 $450 $292 @27 NEUTRON_Material_attrib_def 1 @36 516b5b03-c82c-424f-ac33-864c209014b3 #
DXID-attrib $-1 -1 $586 $451 $374 @10 ASM ENTITY @2 15 #
rgb_color-st-attrib $-1 -1 $587 $-1 $452 0.9647058823529411908 0.9647058823529411908 0.9529411764705881804 1 #
face $588 -1 $-1 $167 $589 $6 $-1 $590 forward single #
loop $-1 -1 $-1 $-1 $591 $452 #
sphere-surface $-1 -1 $-1 -4.999999999999999112 1.000000000000001332 3.999999999999999556 -0.5 0 -1 0 1 0 0 forward_v I I I I #
coedge $-1 -1 $-1 $527 $527 $592 $593 reversed $453 0 $-1 #
coedge $-1 -1 $-1 $528 $528 $455 $529 forward $512 0 $-1 #
edge $-1 -1 $-1 $594 -4.712388980384689674 $594 1.570796326794896558 $528 $595 forward @7 unknown #
vertex $-1 -1 $-1 $457 0 $596 #
ellipse-curve $-1 -1 $-1 0 5 5 0 -1 0 -0.5000000000000004441 0 0 1 I I #
loop $-1 -1 $-1 $-1 $597 $237 #
point $-1 -1 $-1 1.500000000000000222 5 4.5 #
coedge $-1 -1 $-1 $463 $462 $598 $599 reversed $181 0 $-1 #
coedge $-1 -1 $-1 $502 $600 $462 $536 forward $570 0 $-1 #
edge $-1 -1 $-1 $601 -0.0999999999999999778 $506 0.5999999999999999778 $462 $602 forward @7 tangent #
coedge $-1 -1 $-1 $514 $603 $463 $538 forward $432 0 $-1 #
edge $-1 -1 $-1 $542 -0.09999999999999992228 $604 0.5999999999999998668 $463 $605 forward @7 tangent #
coedge $-1 -1 $-1 $606 $464 $603 $607 reversed $541 0 $-1 #
coedge $-1 -1 $-1 $464 $606 $466 $544 reversed $541 0 $-1 #
loop $-1 -1 $-1 $-1 $606 $576 #
vertex $-1 -1 $-1 $465 1 $608 #
ellipse-curve $-1 -1 $-1 3.499999999999998668 3.5 0 0 0 1 0.3535533905932740639 0.3535533905932740639 0 1 F -0.785398163397448279 F 0.785398163397448279 #
edge $-1 -1 $-1 $467 0 $441 1.570796326794896558 $466 $609 forward @7 tangent #
point $-1 -1 $-1 3.999999999999999112 3.5 0 #
vertex $-1 -1 $-1 $470 0 $610 #
ellipse-curve $-1 -1 $-1 4.999999999999999112 -1 5 -1 -0 -0 0 0.5000000000000004441 0 1 I I #
point $-1 -1 $-1 4.999999999999999112 1 4.5 #
coedge $-1 -1 $-1 $474 $473 $611 $612 reversed $475 0 $-1 #
face $613 -1 $-1 $614 $475 $6 $-1 $615 forward single #
coedge $-1 -1 $-1 $597 $616 $477 $552 reversed $532 0 $-1 #
edge $-1 -1 $-1 $483 -0.09999999999999992228 $553 0.5999999999999998668 $551 $617 forward @7 tangent #
vertex $-1 -1 $-1 $618 0 $619 #
ellipse-curve $-1 -1 $-1 -3.499999999999999112 4 9 1 0 0 0 0.999999999999999778 0 1 F 0 F 1.570796326794896558 #
DXID-attrib $-1 -1 $-1 $-1 $479 @10 ASM ENTITY @2 33 #
cone-surface $-1 -1 $-1 2.499999999999999556 4 9 -1 0 0 0 0.7071067811865479058 0.7071067811865471286 1 I I 0 1 1 forward I I I I #
coedge $-1 -1 $-1 $481 $582 $597 $560 forward $558 0 $-1 #
loop $-1 -1 $-1 $-1 $481 $486 #
ellipse-curve $-1 -1 $-1 3.499999999999998668 3.5 9 0 0 1 0 1.500000000000000222 0 1 F -1.570796326794896558 F -0 #
edge $-1 -1 $-1 $620 0.1000000000000000056 $483 0.9000000000000000222 $597 $621 forward @7 tangent #
point $-1 -1 $-1 3.499999999999998668 5 9 #
DXID-attrib $-1 -1 $-1 $-1 $486 @10 ASM ENTITY @2 32 #
cone-surface $-1 -1 $-1 3.499999999999998668 3.5 0 0 0 1 1.060660171779821637 1.060660171779821637 0 1 I I 0 1 1.500000000000000444 forward I I I I #
straight-curve $-1 -1 $-1 4.999999999999999112 3.5 0 0 0 -10 F -1.465000999999999998 F 0.4650010000000000532 #
edge $-1 -1 $-1 $566 -0.0999999999999999778 $416 0.5999999999999999778 $497 $622 forward @7 tangent #
vertex $-1 -1 $-1 $623 1 $624 #
ellipse-curve $-1 -1 $-1 -3.999999999999999112 3.5 9 0 -1 0 0 0 0.999999999999999778 1 F 0 F 1.570796326794896558 #
coedge $-1 -1 $-1 $498 $497 $625 $623 reversed $499 0 $-1 #
coedge $-1 -1 $-1 $600 $502 $498 $504 forward $570 0 $-1 #
loop $-1 -1 $-1 $-1 $502 $509 #
ellipse-curve $-1 -1 $-1 -3.999999999999999112 -3.5 1 0 1 0 0 0 -1 1 F 0 F 1.570796326794896558 #
vertex $-1 -1 $-1 $504 1 $626 #
straight-curve $-1 -1 $-1 -4.999999999999999112 2.5 1 0 10 0 F -1.060000999999999971 F 0.560000999999999971 #
point $-1 -1 $-1 -3.999999999999999112 -3.5 0 #
DXID-attrib $-1 -1 $-1 $-1 $509 @10 ASM ENTITY @2 23 #
face $627 -1 $-1 $550 $541 $6 $-1 $628 forward single #
cone-surface $-1 -1 $-1 -3.999999999999999112 2.5 1 0 -1 0 -0.7071067811865473507 0 -0.7071067811865476838 1 I I 0 1 1 forward I I I I #
loop $-1 -1 $-1 $629 $592 $431 #
coedge $-1 -1 $-1 $603 $514 $630 $631 forward $432 0 $-1 #
coedge $-1 -1 $-1 $598 $520 $514 $581 reversed $446 0 $-1 #
edge $-1 -1 $-1 $604 0 $632 1.570796326794896558 $514 $633 forward @7 tangent #
coedge $-1 -1 $-1 $557 $515 $606 $634 forward $558 0 $-1 #
coedge $-1 -1 $-1 $520 $598 $600 $635 reversed $446 0 $-1 #
coedge $-1 -1 $-1 $625 $636 $520 $585 forward $637 0 $-1 #
edge $-1 -1 $-1 $632 3.700743415417188139e-16 $572 1.570796326794896558 $584 $638 reversed @7 tangent #
ATTRIB_CUSTOM-attrib $-1 -1 $-1 $522 $374 @27 NEUTRON_Material_attrib_def 1 @36 ee906676-ecbb-4cb1-ac4e-30e675852d2f #
DXID-attrib $-1 -1 $639 $523 $452 @10 ASM ENTITY @2 16 #
rgb_color-st-attrib $-1 -1 $640 $-1 $524 0.9647058823529411908 0.9647058823529411908 0.9529411764705881804 1 #
loop $-1 -1 $-1 $-1 $641 $524 #
sphere-surface $-1 -1 $-1 -4.999999999999999112 1.000000000000000666 6 -0.5 0 -1 0 1 0 0 forward_v I I I I #
coedge $-1 -1 $-1 $591 $591 $642 $643 reversed $525 0 $-1 #
coedge $-1 -1 $-1 $592 $592 $527 $593 forward $578 0 $-1 #
edge $-1 -1 $-1 $644 -4.712388980384689674 $644 1.570796326794896558 $592 $645 forward @7 unknown #
vertex $-1 -1 $-1 $529 0 $646 #
ellipse-curve $-1 -1 $-1 -4.999999999999999112 -0.9999999999999986677 4.000000000000001776 1 0 0 0 -0.499999999999999889 0 1 I I #
point $-1 -1 $-1 0 5 4.5 #
coedge $-1 -1 $-1 $630 $551 $557 $560 reversed $532 0 $-1 #
coedge $-1 -1 $-1 $583 $580 $534 $599 forward $446 0 $-1 #
edge $-1 -1 $-1 $604 -0.7853981633974470578 $601 0.7853981633974495002 $534 $647 forward @7 tangent #
coedge $-1 -1 $-1 $535 $569 $583 $635 forward $570 0 $-1 #
vertex $-1 -1 $-1 $599 1 $648 #
straight-curve $-1 -1 $-1 -3.999999999999999112 2.5 0 0 -10 0 F -0.560000999999999971 F 1.060000999999999971 #
coedge $-1 -1 $-1 $537 $579 $539 $607 forward $432 0 $-1 #
vertex $-1 -1 $-1 $599 0 $649 #
straight-curve $-1 -1 $-1 2.499999999999999556 4 0 -10 0 0 F -0.560000999999999971 F 1.060000999999999971 #
coedge $-1 -1 $-1 $540 $539 $582 $634 reversed $541 0 $-1 #
edge $-1 -1 $-1 $620 0 $542 1.570796326794896558 $603 $650 forward @7 tangent #
point $-1 -1 $-1 3.499999999999998668 4 0 #
ellipse-curve $-1 -1 $-1 3.999999999999999112 3.5 1 0 -1 0 0 0 -1 1 F 0 F 1.570796326794896558 #
point $-1 -1 $-1 4.999999999999999112 -1 4.5 #
coedge $-1 -1 $-1 $636 $625 $549 $612 forward $637 0 $-1 #
edge $-1 -1 $-1 $566 -0 $553 1.570796326794896558 $611 $651 reversed @7 tangent #
DXID-attrib $-1 -1 $-1 $-1 $550 @10 ASM ENTITY @2 25 #
face $652 -1 $-1 $358 $637 $6 $-1 $653 forward single #
torus-surface $-1 -1 $-1 -3.499999999999999112 3.5 9 0 0 1 0.5000000000000004441 0.999999999999999778 1 0 0 forward_v I I I I #
coedge $-1 -1 $-1 $551 $630 $636 $618 reversed $532 0 $-1 #
straight-curve $-1 -1 $-1 2.499999999999999556 5 9 -10 0 0 F -0.560000999999999971 F 1.060000999999999971 #
edge $-1 -1 $-1 $553 -0.9000000000000000222 $632 -0.1000000000000000056 $616 $654 forward @7 tangent #
point $-1 -1 $-1 -3.499999999999998668 5 9 #
vertex $-1 -1 $-1 $560 0 $655 #
straight-curve $-1 -1 $-1 3.499999999999998668 5 0 0 0 10 F -0.4650010000000000532 F 1.465000999999999998 #
straight-curve $-1 -1 $-1 -4.999999999999999112 2.5 9 0 -10 0 F -0.560000999999999971 F 1.060000999999999971 #
edge $-1 -1 $-1 $572 0.1000000000000000056 $566 0.9000000000000000222 $568 $656 forward @7 tangent #
point $-1 -1 $-1 -4.999999999999999112 3.5 9 #
coedge $-1 -1 $-1 $611 $584 $568 $623 forward $637 0 $-1 #
point $-1 -1 $-1 -4.999999999999999112 3.5 1 #
DXID-attrib $-1 -1 $-1 $-1 $576 @10 ASM ENTITY @2 24 #
torus-surface $-1 -1 $-1 3.499999999999998668 3.5 1 0 0 -1 0.5000000000000004441 0.999999999999999778 -1 0 0 forward_v I I I I #
loop $-1 -1 $-1 $657 $642 $431 #
coedge $-1 -1 $-1 $616 $597 $579 $631 reversed $532 0 $-1 #
edge $-1 -1 $-1 $632 -0.5999999999999998668 $620 0.09999999999999992228 $630 $658 forward @7 tangent #
vertex $-1 -1 $-1 $618 1 $659 #
ellipse-curve $-1 -1 $-1 -3.499999999999999112 4 1 1 0 0 0 0 -1 1 F 0 F 1.570796326794896558 #
edge $-1 -1 $-1 $441 -0 $620 1.570796326794896558 $582 $660 reversed @7 tangent #
edge $-1 -1 $-1 $572 0 $601 1.570796326794896558 $600 $661 forward @7 tangent #
coedge $-1 -1 $-1 $584 $611 $616 $618 forward $637 0 $-1 #
loop $-1 -1 $-1 $-1 $611 $614 #
ellipse-curve $-1 -1 $-1 -3.499999999999998668 3.5 1 0 0 -1 0 1.500000000000000222 0 1 F -1.570796326794896558 F -0 #
ATTRIB_CUSTOM-attrib $-1 -1 $-1 $587 $452 @27 NEUTRON_Material_attrib_def 1 @36 5972b4ce-a021-426b-a2b2-85d86f1b8620 #
DXID-attrib $-1 -1 $662 $588 $524 @10 ASM ENTITY @2 17 #
coedge $-1 -1 $-1 $641 $641 $663 $664 reversed $589 0 $-1 #
coedge $-1 -1 $-1 $642 $642 $591 $643 forward $629 0 $-1 #
edge $-1 -1 $-1 $665 -4.712388980384689674 $665 1.570796326794896558 $642 $666 forward @7 unknown #
vertex $-1 -1 $-1 $593 0 $667 #
ellipse-curve $-1 -1 $-1 -4.999999999999999112 -0.9999999999999986677 5.999999999999998224 1 0 0 0 -0.500000000000000222 0 1 I I #
point $-1 -1 $-1 -4.999999999999999112 -0.9999999999999986677 3.500000000000001776 #
ellipse-curve $-1 -1 $-1 -3.499999999999999112 3.5 0 0 0 1 -0.3535533905932736753 0.353553390593274508 0 1 F -0.7853981633974470578 F 0.7853981633974495002 #
point $-1 -1 $-1 -3.999999999999999112 3.5 0 #
point $-1 -1 $-1 -3.499999999999999112 4 0 #
ellipse-curve $-1 -1 $-1 3.499999999999998668 4 1 -1 0 0 0 0.999999999999999778 0 1 F 0 F 1.570796326794896558 #
ellipse-curve $-1 -1 $-1 -3.499999999999998668 3.5 9 0 0 1 -1.500000000000000222 0 0 1 F -1.570796326794896558 F -0 #
DXID-attrib $-1 -1 $-1 $-1 $614 @10 ASM ENTITY @2 26 #
cone-surface $-1 -1 $-1 -3.499999999999998668 3.5 0 0 0 1 -1.060660171779821637 1.060660171779821637 0 1 I I 0 1 1.500000000000000444 forward I I I I #
straight-curve $-1 -1 $-1 -3.499999999999998668 5 0 -0 -0 -10 F -1.465000999999999998 F 0.4650010000000000532 #
point $-1 -1 $-1 3.499999999999998668 5 1 #
straight-curve $-1 -1 $-1 -4.999999999999999112 3.5 0 0 0 10 F -0.4650010000000000532 F 1.465000999999999998 #
loop $-1 -1 $-1 $499 $663 $431 #
straight-curve $-1 -1 $-1 2.499999999999999556 5 1 10 0 0 F -1.060000999999999971 F 0.560000999999999971 #
point $-1 -1 $-1 -3.499999999999999112 5 1 #
ellipse-curve $-1 -1 $-1 3.499999999999998668 3.5 1 0 0 -1 1.500000000000000222 0 0 1 F -1.570796326794896558 F -0 #
ellipse-curve $-1 -1 $-1 -3.999999999999999112 3.5 1 -0 -1 -0 -0.999999999999999778 0 0 1 F 0 F 1.570796326794896558 #
ATTRIB_CUSTOM-attrib $-1 -1 $-1 $640 $524 @27 NEUTRON_Material_attrib_def 1 @36 b4df69d4-2eb8-4179-9389-d5d651baa170 #
coedge $-1 -1 $-1 $663 $663 $641 $664 forward $657 0 $-1 #
edge $-1 -1 $-1 $668 -4.712388980384689674 $668 1.570796326794896558 $663 $669 forward @7 unknown #
vertex $-1 -1 $-1 $643 0 $670 #
ellipse-curve $-1 -1 $-1 -4.999999999999999112 1.000000000000001332 3.999999999999999556 1 0 0 0 -0.5 0 1 I I #
point $-1 -1 $-1 -4.999999999999999112 -0.9999999999999986677 5.499999999999998224 #
vertex $-1 -1 $-1 $664 0 $671 #
ellipse-curve $-1 -1 $-1 -4.999999999999999112 1.000000000000000666 6 1 0 0 0 -0.5000000000000004441 0 1 I I #
point $-1 -1 $-1 -4.999999999999999112 1.000000000000001332 3.5 #
point $-1 -1 $-1 -4.999999999999999112 1.000000000000000666 5.499999999999999112 #
End-of-ASM-data 