####
#
# OBJ File Generated by Meshlab
#
####
# Object ensaio.obj
#
# Vertices: 22
# Faces: 36
#
####
mtllib ./ensaio.obj.mtl

vn -1.819698 -1.570795 1.274165
v -995.008606 -992.403992 -72.051971
vn -1.819697 1.570796 1.274165
v -995.008606 992.403992 -72.051971
vn -1.274166 -1.570797 -1.819699
v -992.403870 -992.403992 -86.824097
vn -1.274166 1.570796 -1.819700
v -992.403870 992.403992 -86.824097
vn 0.818298 -0.174533 -6.211594
v -500.000000 -225.000000 0.000000
vn 0.818298 0.174533 -6.211594
v -500.000000 225.000000 0.000000
vn 2.365230 -1.570796 -4.368032
v 469.846313 -225.000000 171.010071
vn 2.365230 1.570796 -4.368032
v 469.846313 225.000000 171.010071
vn 1.546932 -1.396263 -1.298030
v 500.000000 -225.000000 0.000000
vn 1.546932 1.396263 -1.298030
v 500.000000 225.000000 0.000000
vn 1.274164 -1.570801 1.819706
v 959.645447 -992.403992 272.606262
vn 1.274165 1.570801 1.819706
v 959.645447 992.403992 272.606262
vn 1.819697 -1.570791 -1.274159
v 962.250244 -992.403992 257.834167
vn 1.819696 1.570791 -1.274159
v 962.250244 992.403992 257.834167
vn -1.819699 -1.570800 1.274171
v -285.432709 -204.500015 58.142532
vn -1.819701 1.570799 1.274171
v -285.432709 204.500015 58.142532
vn -1.274170 -1.570793 -1.819694
v -284.564484 -204.500015 53.218498
vn -1.274167 1.570788 -1.819694
v -284.564484 204.500015 53.218498
vn 1.274169 -1.570796 1.819698
v 248.333099 -204.500015 152.259842
vn 1.274167 1.570791 1.819698
v 248.333099 204.500015 152.259842
vn 1.819698 -1.570798 -1.274167
v 249.201340 -204.500015 147.335800
vn 1.819700 1.570796 -1.274166
v 249.201340 204.500015 147.335800
# 22 vertices, 0 vertices normals


usemtl material_0
vt 99.240402 99.240387
vt 22.500000 49.240387
vt 99.240402 -99.240387
f 14/1/14 8/2/8 4/3/4
vt 22.500000 -49.240387
f 4/3/4 8/2/8 6/4/6
vt -22.500000 -49.240387
f 4/3/4 6/4/6 5/5/5
vt -99.240402 99.240387
f 14/1/14 13/6/13 8/2/8
vt -22.500000 49.240387
f 8/2/8 13/6/13 7/7/7
vt -99.240402 -99.240387
f 7/7/7 13/6/13 3/8/3
f 7/7/7 3/8/3 5/5/5
f 5/5/5 3/8/3 4/3/4
vt 0.000000 0.000000
vt 198.480804 0.000000
vt 0.000000 1.500000
f 13/9/13 14/10/14 11/11/11
vt 198.480804 1.500000
f 11/11/11 14/10/14 12/12/12
vt 198.480774 0.000000
f 3/9/3 13/13/13 1/11/1
vt 198.480774 1.500000
f 1/11/1 13/13/13 11/14/11
f 4/9/4 3/10/3 2/11/2
f 2/11/2 3/10/3 1/12/1
f 14/9/14 4/13/4 12/11/12
f 12/11/12 4/13/4 2/14/2
vt 99.240387 99.240402
vt -99.240387 99.240402
vt 99.240387 -99.240402
f 12/15/12 2/16/2 11/17/11
vt -99.240387 -99.240402
f 11/17/11 2/16/2 1/18/1
vt 50.000000 22.500000
vt -50.000000 22.500000
vt 50.000000 -22.500000
f 6/19/6 10/20/10 5/21/5
vt -50.000000 -22.500000
f 5/21/5 10/20/10 9/22/9
vt 0.000000 45.000000
vt -17.364819 45.000000
f 10/23/10 8/24/8 9/9/9
vt -17.364819 0.000000
f 9/9/9 8/24/8 7/25/7
vt 0.000000 -100.000000
vt 17.101007 -3.015369
f 10/9/10 6/26/6 8/27/8
vt 0.000000 100.000000
vt -17.101007 96.984634
f 5/9/5 9/28/9 7/29/7

usemtl material_1
vt 40.900002 0.000000
vt 0.000000 0.500000
f 21/9/21 22/30/22 19/31/19
vt 40.900002 0.500000
f 19/31/19 22/30/22 20/32/20
vt 54.200001 0.000000
f 17/9/17 21/33/21 15/31/15
vt 54.200001 0.500000
f 15/31/15 21/33/21 19/34/19
f 18/9/18 17/30/17 16/31/16
f 16/31/16 17/30/17 15/32/15
f 22/9/22 18/33/18 20/31/20
f 20/31/20 18/33/18 16/34/16
vt 27.100000 20.450001
vt -27.100000 20.450001
vt 27.100000 -20.450001
f 20/35/20 16/36/16 19/37/19
vt -27.100000 -20.450001
f 19/37/19 16/36/16 15/38/15
vt 20.450001 27.100000
vt -20.450001 27.100000
vt 20.450001 -27.100000
f 22/39/22 21/40/21 18/41/18
vt -20.450001 -27.100000
f 18/41/18 21/40/21 17/42/17
# 36 faces, 42 coords texture

# End of File
